<svg width="512" height="512" viewBox="0 0 512 512" fill="none" xmlns="http://www.w3.org/2000/svg">
<path fill-rule="evenodd" clip-rule="evenodd" d="M219.852 125.995C219.852 125.995 216.812 137.34 213.741 154.198C196.046 148.631 171.089 144.634 169.372 165.564C167.694 186.018 190.311 204.65 207.442 215.716C207.323 241.336 211.24 266.494 223.915 282.035L206.57 346.769L179.132 339.417C172.099 337.533 164.87 341.707 162.985 348.74C161.101 355.773 165.274 363.003 172.308 364.887L274.188 392.186C281.221 394.071 288.451 389.897 290.335 382.863C292.22 375.83 288.046 368.601 281.013 366.716L253.862 359.441L271.264 294.497C289.865 287.263 305.72 267.537 318.349 245.423C338.717 244.401 367.592 239.568 376.36 221.027C385.333 202.052 361.753 193.035 343.649 189.005C349.417 172.871 352.457 161.526 352.457 161.526L219.852 125.995ZM222.025 350.91L238.407 355.3L253.93 297.369C251.125 297.216 248.27 296.764 245.366 295.986C242.567 295.236 239.959 294.246 237.531 293.039L222.025 350.91ZM184.171 172.668C185.212 159.991 203.302 165.603 211.335 168.744C209.874 178.6 208.612 189.478 207.945 200.613C199.713 195.943 183.162 184.963 184.171 172.668ZM325.464 232.094C330.452 222.118 334.798 212.068 338.46 202.803C347.001 204.105 365.423 208.294 359.992 219.779C354.724 230.918 334.941 232.161 325.464 232.094Z" fill="white"/>
</svg>
