<svg width="512" height="512" viewBox="0 0 512 512" fill="none" xmlns="http://www.w3.org/2000/svg">
<path fill-rule="evenodd" clip-rule="evenodd" d="M236.347 10C234.58 10 232.818 10.0186 231.06 10.0557C229.379 10.0186 227.694 10 226.004 10C101.185 10 0 111.649 0 237.038C0 359.014 -3.55776e-06 458.524 208.04 463.852C209.528 464.001 211.037 464.077 212.564 464.077H225.79L226.004 464.077L226.122 464.077H236.123L236.347 464.077L236.471 464.077H467C491.853 464.077 512 443.93 512 419.077V359.097C512 334.244 491.853 314.097 467 314.097H458.734H334.616C309.763 314.097 289.616 293.95 289.616 269.097V238.544C289.616 222.362 298.305 207.425 312.373 199.426L442.286 125.554C401.731 56.5714 324.701 10 236.347 10ZM221.693 303.754C238.83 303.754 252.723 289.861 252.723 272.723C252.723 255.586 238.83 241.693 221.693 241.693C204.555 241.693 190.663 255.586 190.663 272.723C190.663 289.861 204.555 303.754 221.693 303.754Z" fill="white"/>
</svg>
