<svg width="512" height="512" viewBox="0 0 512 512" fill="none" xmlns="http://www.w3.org/2000/svg">
<path fill-rule="evenodd" clip-rule="evenodd" d="M274.676 118.209C268.144 116.459 261.429 120.335 259.679 126.867C258.278 132.097 260.483 137.442 264.769 140.265C264.507 140.9 264.283 141.56 264.1 142.241L251.22 190.313C250.38 193.445 248.609 196.249 246.14 198.352L207.182 231.538C204.713 233.641 202.942 236.444 202.102 239.577L174.08 344.157C171.793 352.693 176.859 361.466 185.394 363.753L261.588 384.169C270.124 386.456 278.897 381.391 281.184 372.856L286.062 354.649C284.371 354.757 282.633 354.595 280.905 354.132L247.421 345.16C238.885 342.873 233.82 334.1 236.107 325.564L245.079 292.08C247.366 283.545 256.139 278.48 264.675 280.767L298.159 289.739C299.887 290.202 301.473 290.931 302.884 291.87L309.27 268.039C310.069 265.054 309.988 261.901 309.034 258.962L293.445 210.894C292.491 207.955 292.41 204.802 293.209 201.817L306.153 153.509C306.341 152.809 306.479 152.107 306.57 151.407C311.623 151.037 316.117 147.531 317.502 142.361C319.252 135.829 315.376 129.115 308.844 127.364L274.676 118.209ZM252.321 304.143C254.608 295.607 263.381 290.542 271.917 292.829L301.8 300.837L289.652 346.175L259.768 338.168C251.233 335.881 246.168 327.107 248.455 318.572L252.321 304.143Z" fill="white"/>
</svg>
