<svg width="512" height="512" viewBox="0 0 512 512" fill="none" xmlns="http://www.w3.org/2000/svg">
<path d="M166.984 234.828C164.984 234.828 163.234 235.422 161.734 236.609C160.234 237.797 158.984 239.484 157.984 241.672C157.016 243.828 156.281 246.375 155.781 249.312C155.312 252.25 155.078 255.453 155.078 258.922C155.078 264.016 155.562 268.328 156.531 271.859C157.5 275.359 158.922 278.016 160.797 279.828C162.672 281.641 164.953 282.547 167.641 282.547C169.766 282.547 171.781 282.188 173.688 281.469C175.594 280.75 177.484 279.891 179.359 278.891V290.609C177.391 291.703 175.266 292.531 172.984 293.094C170.734 293.656 168.312 293.938 165.719 293.938C160.562 293.938 156.172 292.578 152.547 289.859C148.953 287.109 146.203 283.125 144.297 277.906C142.391 272.656 141.438 266.297 141.438 258.828C141.438 253.703 141.969 249 143.031 244.719C144.125 240.406 145.719 236.672 147.812 233.516C149.906 230.328 152.469 227.859 155.5 226.109C158.562 224.359 162.062 223.484 166 223.484C168.75 223.484 171.406 223.828 173.969 224.516C176.531 225.203 179 226.266 181.375 227.703L177.625 238.578C175.938 237.422 174.234 236.516 172.516 235.859C170.797 235.172 168.953 234.828 166.984 234.828ZM227.125 266.609C227.125 270.266 226.75 273.734 226 277.016C225.281 280.297 224.125 283.203 222.531 285.734C220.969 288.266 218.906 290.266 216.344 291.734C213.812 293.203 210.719 293.938 207.062 293.938C203.656 293.938 200.703 293.219 198.203 291.781C195.703 290.344 193.641 288.375 192.016 285.875C190.391 283.344 189.172 280.438 188.359 277.156C187.578 273.844 187.188 270.328 187.188 266.609C187.188 261.328 187.875 256.656 189.25 252.594C190.656 248.5 192.828 245.297 195.766 242.984C198.734 240.672 202.562 239.516 207.25 239.516C211.281 239.516 214.781 240.562 217.75 242.656C220.75 244.75 223.062 247.812 224.688 251.844C226.312 255.844 227.125 260.766 227.125 266.609ZM199.844 266.797C199.844 270.422 200.094 273.469 200.594 275.938C201.125 278.406 201.922 280.266 202.984 281.516C204.078 282.766 205.469 283.391 207.156 283.391C208.875 283.391 210.25 282.781 211.281 281.562C212.344 280.312 213.109 278.438 213.578 275.938C214.078 273.438 214.328 270.328 214.328 266.609C214.328 262.922 214.078 259.859 213.578 257.422C213.109 254.984 212.344 253.156 211.281 251.938C210.25 250.719 208.875 250.109 207.156 250.109C204.594 250.109 202.734 251.469 201.578 254.188C200.422 256.906 199.844 261.109 199.844 266.797ZM259.562 239.516C264 239.516 267.406 241.125 269.781 244.344C272.188 247.531 273.391 252.172 273.391 258.266V293H260.922V261.875C260.922 258.188 260.547 255.406 259.797 253.531C259.047 251.625 257.625 250.672 255.531 250.672C252.906 250.672 251.062 251.953 250 254.516C248.969 257.078 248.453 261.484 248.453 267.734V293H235.984V240.5H245.875L247.188 247.203H247.984C248.766 245.547 249.719 244.156 250.844 243.031C251.969 241.875 253.266 241 254.734 240.406C256.203 239.812 257.812 239.516 259.562 239.516ZM306.438 250.859H298V293H285.484V250.859H279.438V244.156L285.484 240.5V238.859C285.484 234.422 285.938 230.781 286.844 227.938C287.75 225.094 289.203 222.984 291.203 221.609C293.234 220.234 295.875 219.547 299.125 219.547C300.969 219.547 302.625 219.719 304.094 220.062C305.594 220.375 307.328 220.906 309.297 221.656L306.625 231.078C305.75 230.797 304.922 230.578 304.141 230.422C303.359 230.234 302.562 230.141 301.75 230.141C300.406 230.141 299.438 230.734 298.844 231.922C298.281 233.078 298 235.094 298 237.969V240.5H306.438V250.859ZM325.281 240.5V293H312.812V240.5H325.281ZM319.047 219.828C321.391 219.828 323.109 220.453 324.203 221.703C325.297 222.922 325.844 224.703 325.844 227.047C325.844 229.328 325.266 231.078 324.109 232.297C322.984 233.484 321.297 234.078 319.047 234.078C316.859 234.078 315.172 233.484 313.984 232.297C312.797 231.078 312.203 229.328 312.203 227.047C312.203 224.641 312.75 222.844 313.844 221.656C314.969 220.438 316.703 219.828 319.047 219.828ZM349.562 316.062C343.75 316.062 339.25 314.781 336.062 312.219C332.875 309.656 331.281 306.031 331.281 301.344C331.281 298.281 332.156 295.656 333.906 293.469C335.688 291.281 338.031 289.781 340.938 288.969C339.469 288.344 338.25 287.375 337.281 286.062C336.312 284.719 335.828 283.172 335.828 281.422C335.828 279.422 336.266 277.766 337.141 276.453C338.047 275.141 339.266 273.797 340.797 272.422C338.828 271.141 337.25 269.141 336.062 266.422C334.875 263.703 334.281 260.719 334.281 257.469C334.281 253.719 334.953 250.516 336.297 247.859C337.672 245.203 339.656 243.188 342.25 241.812C344.875 240.406 348.062 239.703 351.812 239.703C352.969 239.703 353.969 239.766 354.812 239.891C355.688 239.984 356.438 240.125 357.062 240.312C357.719 240.469 358.281 240.641 358.75 240.828H373.938V248.328L367.75 249.688C368.344 250.844 368.766 252.062 369.016 253.344C369.266 254.625 369.391 256.031 369.391 257.562C369.391 263.188 367.875 267.547 364.844 270.641C361.812 273.734 357.516 275.281 351.953 275.281C350.234 275.281 348.969 275.141 348.156 274.859C347.656 275.328 347.172 275.891 346.703 276.547C346.266 277.203 346.047 278.031 346.047 279.031C346.047 279.781 346.234 280.422 346.609 280.953C347.016 281.453 347.625 281.828 348.438 282.078C349.25 282.328 350.266 282.453 351.484 282.453H360.203C364.391 282.453 367.609 283.625 369.859 285.969C372.109 288.312 373.234 291.891 373.234 296.703C373.234 302.922 371.219 307.703 367.188 311.047C363.188 314.391 357.312 316.062 349.562 316.062ZM350.453 306.734C352.984 306.734 355.062 306.422 356.688 305.797C358.312 305.172 359.516 304.25 360.297 303.031C361.078 301.844 361.469 300.391 361.469 298.672C361.469 297.297 361.266 296.25 360.859 295.531C360.453 294.844 359.75 294.359 358.75 294.078C357.781 293.828 356.438 293.703 354.719 293.703H347.875C346.906 293.703 346.047 293.938 345.297 294.406C344.547 294.906 343.969 295.641 343.562 296.609C343.156 297.578 342.953 298.828 342.953 300.359C342.953 302.453 343.625 304.031 344.969 305.094C346.312 306.188 348.141 306.734 350.453 306.734ZM351.906 266.609C353.5 266.609 354.719 265.844 355.562 264.312C356.406 262.781 356.828 260.531 356.828 257.562C356.828 254.406 356.406 252.078 355.562 250.578C354.719 249.047 353.484 248.281 351.859 248.281C350.234 248.281 349 249.062 348.156 250.625C347.312 252.156 346.891 254.453 346.891 257.516C346.891 260.484 347.297 262.75 348.109 264.312C348.922 265.844 350.188 266.609 351.906 266.609Z" fill="white"/>
</svg>
