<svg width="512" height="512" viewBox="0 0 512 512" fill="none" xmlns="http://www.w3.org/2000/svg">
<path d="M172.375 257.469C172.375 265.125 171.312 271.594 169.188 276.875C167.094 282.156 164.016 286.172 159.953 288.922C155.922 291.641 150.969 293 145.094 293H128.969V224.469H146.078C151.703 224.469 156.469 225.734 160.375 228.266C164.312 230.797 167.297 234.516 169.328 239.422C171.359 244.328 172.375 250.344 172.375 257.469ZM158.828 258.078C158.828 252.953 158.344 248.75 157.375 245.469C156.406 242.188 154.953 239.766 153.016 238.203C151.109 236.641 148.734 235.859 145.891 235.859H142.141V281.469H145C149.75 281.469 153.234 279.547 155.453 275.703C157.703 271.859 158.828 265.984 158.828 258.078ZM204.766 239.516C205.453 239.516 206.125 239.578 206.781 239.703C207.438 239.797 208.203 239.969 209.078 240.219L207.953 253.531C207.328 253.281 206.641 253.109 205.891 253.016C205.172 252.922 204.375 252.875 203.5 252.875C202.062 252.875 200.781 253.188 199.656 253.812C198.531 254.438 197.578 255.344 196.797 256.531C196.047 257.688 195.469 259.094 195.062 260.75C194.688 262.375 194.5 264.203 194.5 266.234V293H182.031V240.5H191.641L193.422 249.125H194.031C194.719 247.469 195.578 245.906 196.609 244.438C197.641 242.969 198.844 241.781 200.219 240.875C201.594 239.969 203.109 239.516 204.766 239.516ZM227.875 240.5V293H215.406V240.5H227.875ZM221.641 219.828C223.984 219.828 225.703 220.453 226.797 221.703C227.891 222.922 228.438 224.703 228.438 227.047C228.438 229.328 227.859 231.078 226.703 232.297C225.578 233.484 223.891 234.078 221.641 234.078C219.453 234.078 217.766 233.484 216.578 232.297C215.391 231.078 214.797 229.328 214.797 227.047C214.797 224.641 215.344 222.844 216.438 221.656C217.562 220.438 219.297 219.828 221.641 219.828ZM247.844 293L233.641 240.5H246.625L252.578 268.25C253.016 270.062 253.375 271.891 253.656 273.734C253.938 275.578 254.188 277.516 254.406 279.547H254.781C254.844 278.109 255.016 276.516 255.297 274.766C255.609 272.984 255.984 271.062 256.422 269L262.75 240.5H275.688L261.391 293H247.844ZM298.469 239.609C302.406 239.609 305.734 240.578 308.453 242.516C311.203 244.453 313.281 247.203 314.688 250.766C316.094 254.297 316.797 258.484 316.797 263.328V270.359H291.766C291.828 274.953 292.672 278.344 294.297 280.531C295.922 282.688 298.406 283.766 301.75 283.766C303.969 283.766 306.062 283.484 308.031 282.922C310.031 282.328 312.156 281.328 314.406 279.922V290.328C312.312 291.578 310.078 292.484 307.703 293.047C305.328 293.641 302.766 293.938 300.016 293.938C295.203 293.938 291.281 292.859 288.25 290.703C285.219 288.516 283 285.422 281.594 281.422C280.188 277.391 279.484 272.609 279.484 267.078C279.484 261.172 280.188 256.188 281.594 252.125C283.031 248.031 285.156 244.922 287.969 242.797C290.781 240.672 294.281 239.609 298.469 239.609ZM298.75 249.406C296.688 249.406 295.047 250.344 293.828 252.219C292.609 254.062 291.953 257.094 291.859 261.312H305.219C305.219 258.844 304.969 256.719 304.469 254.938C303.969 253.156 303.234 251.797 302.266 250.859C301.297 249.891 300.125 249.406 298.75 249.406ZM348.109 239.516C348.797 239.516 349.469 239.578 350.125 239.703C350.781 239.797 351.547 239.969 352.422 240.219L351.297 253.531C350.672 253.281 349.984 253.109 349.234 253.016C348.516 252.922 347.719 252.875 346.844 252.875C345.406 252.875 344.125 253.188 343 253.812C341.875 254.438 340.922 255.344 340.141 256.531C339.391 257.688 338.812 259.094 338.406 260.75C338.031 262.375 337.844 264.203 337.844 266.234V293H325.375V240.5H334.984L336.766 249.125H337.375C338.062 247.469 338.922 245.906 339.953 244.438C340.984 242.969 342.188 241.781 343.562 240.875C344.938 239.969 346.453 239.516 348.109 239.516ZM386.594 277.625C386.594 281.188 385.922 284.188 384.578 286.625C383.266 289.031 381.344 290.859 378.812 292.109C376.312 293.328 373.297 293.938 369.766 293.938C367.234 293.938 364.812 293.688 362.5 293.188C360.219 292.719 358.062 291.984 356.031 290.984V278.891C357.719 280.047 359.672 281.047 361.891 281.891C364.109 282.703 366.359 283.109 368.641 283.109C370.391 283.109 371.734 282.703 372.672 281.891C373.609 281.078 374.078 279.891 374.078 278.328C374.078 277.453 373.891 276.641 373.516 275.891C373.141 275.109 372.391 274.297 371.266 273.453C370.141 272.578 368.453 271.578 366.203 270.453C364.047 269.266 362.203 267.906 360.672 266.375C359.141 264.844 357.969 263.094 357.156 261.125C356.344 259.156 355.938 256.922 355.938 254.422C355.938 249.797 357.375 246.156 360.25 243.5C363.125 240.844 367.062 239.516 372.062 239.516C374.625 239.516 377.031 239.875 379.281 240.594C381.562 241.281 383.797 242.297 385.984 243.641L382.562 253.25C381.062 252.25 379.484 251.406 377.828 250.719C376.172 250.031 374.484 249.688 372.766 249.688C371.234 249.688 370.062 250.062 369.25 250.812C368.438 251.531 368.031 252.531 368.031 253.812C368.031 254.719 368.219 255.5 368.594 256.156C368.969 256.812 369.703 257.547 370.797 258.359C371.922 259.141 373.562 260.188 375.719 261.5C377.875 262.75 379.766 264.109 381.391 265.578C383.016 267.047 384.281 268.75 385.188 270.688C386.125 272.625 386.594 274.938 386.594 277.625Z" fill="white"/>
</svg>
