<svg width="320" height="192" viewBox="0 0 320 192" fill="none" xmlns="http://www.w3.org/2000/svg">
<g clip-path="url(#clip0_2202_1463)">
<path d="M0 0H320V96H145.21L0 0Z" fill="#E03C31"/>
<path d="M0 192H320V96H145.21L0 192Z" fill="#001489"/>
<mask id="mask0_2202_1463" style="mask-type:luminance" maskUnits="userSpaceOnUse" x="0" y="0" width="320" height="192">
<path d="M0 0H320V192H0V0Z" fill="white"/>
</mask>
<g mask="url(#mask0_2202_1463)">
<path d="M154.98 64H320V128H154.98L-32.2689 251.793V-59.7925L154.98 64ZM32.2689 132.208L87.0365 96L32.2689 59.7925V132.208Z" fill="white"/>
<mask id="mask1_2202_1463" style="mask-type:luminance" maskUnits="userSpaceOnUse" x="0" y="0" width="146" height="192">
<path d="M0 0L145.21 96L0 192V0Z" fill="white"/>
</mask>
<g mask="url(#mask1_2202_1463)">
<path d="M0 0L145.21 96L0 192" fill="#1F1F1F"/>
<path d="M203.384 95.9999L17.8995 218.626L-17.8994 165.374L87.0366 95.9999L-17.8994 26.6255L17.8995 -26.6257L203.384 95.9999Z" fill="#FFB81C"/>
</g>
<path d="M151.072 76.8H320V115.2H151.072L10.7398 207.975L-10.7399 176.025L110.306 96L-10.7399 15.9753L10.7398 -15.9753L151.072 76.8Z" fill="#007749"/>
</g>
</g>
<defs>
<clipPath id="clip0_2202_1463">
<rect width="320" height="192" fill="white"/>
</clipPath>
</defs>
</svg>
