<svg width="512" height="512" viewBox="0 0 512 512" fill="none" xmlns="http://www.w3.org/2000/svg">
<rect x="96" y="160" width="320" height="192" fill="#F7F7F7"/>
<rect x="229.333" y="160" width="53.3333" height="192" fill="#C8102E"/>
<path d="M389.333 160H416L322.667 220H296L389.333 160Z" fill="#C8102E"/>
<path d="M389.333 352H416L322.667 292H296L389.333 352Z" fill="#C8102E"/>
<path d="M122.667 160H96L189.333 220H216L122.667 160Z" fill="#C8102E"/>
<path d="M122.667 352H96L189.333 292H216L122.667 352Z" fill="#C8102E"/>
<rect x="96" y="280" width="48" height="320" transform="rotate(-90 96 280)" fill="#C8102E"/>
<path d="M136.833 352L216 304V352H136.833Z" fill="#012169"/>
<path d="M374.334 160L295.167 208L295.167 160L374.334 160Z" fill="#012169"/>
<path d="M374.333 352L295.167 304V352H374.333Z" fill="#012169"/>
<path d="M136.834 160L216 208L216 160L136.834 160Z" fill="#012169"/>
<path d="M175.167 220L95.9998 172L95.9998 220L175.167 220Z" fill="#012169"/>
<path d="M175.167 292L95.9998 340L95.9998 292L175.167 292Z" fill="#012169"/>
<path d="M336.833 220L416 172L416 220L336.833 220Z" fill="#012169"/>
<path d="M336.833 292L416 340L416 292L336.833 292Z" fill="#012169"/>
</svg>
