<svg width="512" height="512" viewBox="0 0 512 512" fill="none" xmlns="http://www.w3.org/2000/svg">
<path fill-rule="evenodd" clip-rule="evenodd" d="M286.927 122.573C285.984 122.32 285.041 122.078 284.097 121.846C283.205 121.586 282.308 121.335 281.406 121.093C214.776 103.24 146.393 142.392 128.668 208.542C111.426 272.89 97.3597 325.387 207.661 357.955C208.434 358.246 209.229 358.502 210.044 358.721L217.105 360.612L217.219 360.643L217.282 360.66L222.621 362.09L222.74 362.122L222.806 362.14L337.217 392.796C350.484 396.351 364.086 388.604 367.599 375.493L376.078 343.85C379.591 330.739 371.684 317.229 358.418 313.674L354.005 312.492L296.398 297.056C283.131 293.501 275.225 279.991 278.738 266.88L283.057 250.761C285.344 242.224 292.094 235.587 300.734 233.379L380.526 212.99C368.628 170.797 334.092 135.211 286.927 122.573ZM237.58 275.448C246.728 277.899 256.109 272.557 258.531 263.515C260.954 254.475 255.501 245.158 246.353 242.707C237.205 240.256 227.825 245.598 225.403 254.639C222.98 263.68 228.432 272.996 237.58 275.448Z" fill="white"/>
</svg>
