<svg width="512" height="512" viewBox="0 0 512 512" fill="none" xmlns="http://www.w3.org/2000/svg">
<path fill-rule="evenodd" clip-rule="evenodd" d="M349.407 162.071C346.74 161.356 343.998 162.939 343.284 165.606L331.639 209.064V209.064C331.322 210.247 328.889 213.175 327.707 212.858L212.471 181.981C211.289 181.664 210.646 177.912 210.963 176.729V176.729L222.607 133.271C223.322 130.604 221.739 127.862 219.071 127.147L212.64 125.424C209.973 124.71 207.231 126.292 206.517 128.96L194.872 172.418V172.418C194.555 173.6 192.122 176.528 190.94 176.212L169.69 170.518C166.974 169.79 164.181 171.402 163.453 174.119L126.325 312.682C124.181 320.684 128.93 328.909 136.932 331.054L318.59 379.729C326.592 381.873 334.817 377.124 336.961 369.122L374.089 230.559C374.817 227.842 373.204 225.049 370.488 224.321L349.238 218.628C348.056 218.311 347.413 214.558 347.729 213.375V213.375L359.374 169.918C360.089 167.25 358.506 164.509 355.838 163.794L349.407 162.071ZM360.564 175.132C360.707 174.598 361.255 174.282 361.788 174.425L372.882 177.397C380.884 179.542 385.633 187.767 383.489 195.769L381.539 203.045C379.395 211.047 371.17 215.796 363.168 213.652L352.074 210.679C351.541 210.536 351.224 209.988 351.367 209.455L360.564 175.132ZM225.987 138.037C224.92 137.751 223.824 138.384 223.538 139.451L214.859 171.842C214.573 172.909 215.206 174.006 216.273 174.292L328.259 204.298C329.326 204.584 330.423 203.951 330.708 202.884L339.387 170.493C339.673 169.426 339.04 168.33 337.973 168.044L225.987 138.037ZM183.576 193.462C181.442 192.89 179.249 194.156 178.677 196.29L171.506 223.055C170.934 225.188 172.2 227.382 174.334 227.953L199.518 234.702C201.652 235.273 203.846 234.007 204.417 231.873L211.589 205.109C212.161 202.975 210.894 200.782 208.76 200.21L183.576 193.462ZM229.653 205.808C227.519 205.236 225.325 206.503 224.754 208.636L217.582 235.401C217.01 237.535 218.277 239.728 220.411 240.3L245.595 247.048C247.729 247.62 249.922 246.353 250.494 244.219L257.665 217.455C258.237 215.321 256.971 213.128 254.837 212.556L229.653 205.808ZM270.83 220.983C271.402 218.849 273.595 217.582 275.729 218.154L300.914 224.902C303.047 225.474 304.314 227.667 303.742 229.801L296.571 256.566C295.999 258.699 293.805 259.966 291.672 259.394L266.487 252.646C264.353 252.074 263.087 249.881 263.659 247.747L270.83 220.983ZM321.806 230.5C319.672 229.929 317.479 231.195 316.907 233.329L309.735 260.093C309.164 262.227 310.43 264.42 312.564 264.992L337.748 271.74C339.882 272.312 342.075 271.046 342.647 268.912L349.819 242.148C350.39 240.014 349.124 237.82 346.99 237.249L321.806 230.5ZM167.032 239.75C167.604 237.616 169.797 236.35 171.931 236.921L197.116 243.669C199.249 244.241 200.516 246.435 199.944 248.568L192.773 275.333C192.201 277.466 190.007 278.733 187.874 278.161L162.689 271.413C160.555 270.841 159.289 268.648 159.861 266.514L167.032 239.75ZM218.008 249.267C215.874 248.696 213.68 249.962 213.109 252.096L205.937 278.86C205.366 280.994 206.632 283.187 208.766 283.759L233.95 290.507C236.084 291.079 238.277 289.813 238.849 287.679L246.021 260.915C246.592 258.781 245.326 256.587 243.192 256.016L218.008 249.267ZM259.185 264.442C259.757 262.308 261.95 261.042 264.084 261.614L289.269 268.362C291.403 268.934 292.669 271.127 292.097 273.261L284.926 300.025C284.354 302.159 282.161 303.425 280.027 302.853L254.842 296.105C252.708 295.533 251.442 293.34 252.014 291.206L259.185 264.442ZM310.161 273.96C308.027 273.388 305.834 274.654 305.262 276.788L298.09 303.552C297.519 305.686 298.785 307.88 300.919 308.451L326.103 315.2C328.237 315.771 330.43 314.505 331.002 312.371L338.174 285.607C338.745 283.473 337.479 281.28 335.345 280.708L310.161 273.96ZM155.387 283.209C155.959 281.075 158.152 279.809 160.286 280.381L185.471 287.129C187.605 287.701 188.871 289.894 188.299 292.028L181.128 318.792C180.556 320.926 178.363 322.192 176.229 321.62L151.044 314.872C148.91 314.301 147.644 312.107 148.216 309.973L155.387 283.209ZM206.363 292.727C204.229 292.155 202.036 293.421 201.464 295.555L194.292 322.32C193.721 324.453 194.987 326.647 197.121 327.218L222.305 333.967C224.439 334.538 226.632 333.272 227.204 331.138L234.376 304.374C234.947 302.24 233.681 300.047 231.547 299.475L206.363 292.727ZM247.54 307.901C248.112 305.768 250.305 304.501 252.439 305.073L277.624 311.821C279.758 312.393 281.024 314.586 280.452 316.72L273.281 343.484C272.709 345.618 270.516 346.885 268.382 346.313L243.197 339.565C241.063 338.993 239.797 336.8 240.369 334.666L247.54 307.901ZM298.516 317.419C296.382 316.847 294.189 318.114 293.617 320.248L286.445 347.012C285.874 349.146 287.14 351.339 289.274 351.911L314.458 358.659C316.592 359.231 318.786 357.964 319.357 355.831L326.529 329.066C327.101 326.933 325.834 324.739 323.7 324.167L298.516 317.419ZM202.172 131.656L191.078 128.683C183.076 126.539 174.851 131.288 172.707 139.29L170.757 146.567C168.613 154.569 173.362 162.794 181.364 164.938L192.458 167.91C192.991 168.053 193.54 167.737 193.683 167.203L202.879 132.881C203.022 132.347 202.706 131.799 202.172 131.656Z" fill="white"/>
</svg>
