<svg width="512" height="512" viewBox="0 0 512 512" fill="none" xmlns="http://www.w3.org/2000/svg">
<path fill-rule="evenodd" clip-rule="evenodd" d="M202.667 230C202.667 225.582 206.248 222 210.667 222H301.333C305.752 222 309.333 225.582 309.333 230V374C309.333 378.418 305.752 382 301.333 382H210.667C206.248 382 202.667 378.418 202.667 374V230ZM316 336.667C316 332.248 319.582 328.667 324 328.667H408C412.418 328.667 416 332.248 416 336.667V374C416 378.418 412.418 382 408 382H324C319.582 382 316 378.418 316 374V336.667ZM196 283.333C196 278.915 192.418 275.333 188 275.333H104C99.5817 275.333 96 278.915 96 283.333V375.667C96 380.085 99.5817 383.667 104 383.667H188C192.418 383.667 196 380.085 196 375.667V283.333Z" fill="white"/>
</svg>
