<svg width="512" height="512" viewBox="0 0 512 512" fill="none" xmlns="http://www.w3.org/2000/svg">
<path d="M190.094 224.469C195.156 224.469 199.359 225.203 202.703 226.672C206.047 228.141 208.531 230.344 210.156 233.281C211.812 236.219 212.641 239.906 212.641 244.344C212.641 247.156 212.297 249.719 211.609 252.031C210.922 254.312 209.844 256.359 208.375 258.172C206.938 259.953 205.094 261.516 202.844 262.859L216.953 293H202.469L191.266 266.141H187.328V293H174.156V224.469H190.094ZM190 235.578H187.328V255.734H190.281C193.219 255.734 195.438 254.844 196.938 253.062C198.469 251.281 199.234 248.594 199.234 245C199.234 241.781 198.469 239.406 196.938 237.875C195.438 236.344 193.125 235.578 190 235.578ZM240.859 239.516C245.953 239.516 249.828 241.094 252.484 244.25C255.172 247.375 256.516 252.047 256.516 258.266V293H247.375L245.359 285.969H245.078C244.016 287.75 242.875 289.234 241.656 290.422C240.469 291.609 239.109 292.484 237.578 293.047C236.047 293.641 234.25 293.938 232.188 293.938C229.281 293.938 226.922 293.156 225.109 291.594C223.328 290.031 222.031 288 221.219 285.5C220.406 283 220 280.344 220 277.531C220 272.062 221.516 267.922 224.547 265.109C227.578 262.297 231.891 260.781 237.484 260.562L244 260.281V258.172C244 255.297 243.547 253.156 242.641 251.75C241.766 250.312 240.312 249.594 238.281 249.594C236.781 249.594 235.141 249.891 233.359 250.484C231.578 251.078 229.625 252 227.5 253.25L224.031 243.922C226.406 242.484 229.016 241.391 231.859 240.641C234.703 239.891 237.703 239.516 240.859 239.516ZM244 268.625L240.484 268.812C237.828 268.938 235.844 269.688 234.531 271.062C233.25 272.406 232.609 274.375 232.609 276.969C232.609 279.312 233 281.062 233.781 282.219C234.594 283.375 235.766 283.953 237.297 283.953C239.266 283.953 240.875 283 242.125 281.094C243.375 279.188 244 276.625 244 273.406V268.625ZM284.922 293.938C280.547 293.938 276.891 292.969 273.953 291.031C271.047 289.062 268.859 286.094 267.391 282.125C265.953 278.125 265.234 273.078 265.234 266.984C265.234 261.672 265.938 256.953 267.344 252.828C268.75 248.672 270.922 245.422 273.859 243.078C276.797 240.703 280.547 239.516 285.109 239.516C287.703 239.516 290.031 239.812 292.094 240.406C294.188 240.969 296.141 241.828 297.953 242.984L294.484 252.969C293.047 252.094 291.625 251.453 290.219 251.047C288.844 250.609 287.453 250.391 286.047 250.391C284.328 250.391 282.859 251.031 281.641 252.312C280.422 253.562 279.484 255.422 278.828 257.891C278.203 260.328 277.891 263.359 277.891 266.984C277.891 270.578 278.203 273.578 278.828 275.984C279.484 278.391 280.422 280.203 281.641 281.422C282.891 282.609 284.422 283.203 286.234 283.203C288.016 283.203 289.812 282.875 291.625 282.219C293.438 281.562 295.203 280.609 296.922 279.359V290.047C295.234 291.391 293.344 292.375 291.25 293C289.188 293.625 287.078 293.938 284.922 293.938ZM322.562 239.609C326.5 239.609 329.828 240.578 332.547 242.516C335.297 244.453 337.375 247.203 338.781 250.766C340.188 254.297 340.891 258.484 340.891 263.328V270.359H315.859C315.922 274.953 316.766 278.344 318.391 280.531C320.016 282.688 322.5 283.766 325.844 283.766C328.062 283.766 330.156 283.484 332.125 282.922C334.125 282.328 336.25 281.328 338.5 279.922V290.328C336.406 291.578 334.172 292.484 331.797 293.047C329.422 293.641 326.859 293.938 324.109 293.938C319.297 293.938 315.375 292.859 312.344 290.703C309.312 288.516 307.094 285.422 305.688 281.422C304.281 277.391 303.578 272.609 303.578 267.078C303.578 261.172 304.281 256.188 305.688 252.125C307.125 248.031 309.25 244.922 312.062 242.797C314.875 240.672 318.375 239.609 322.562 239.609ZM322.844 249.406C320.781 249.406 319.141 250.344 317.922 252.219C316.703 254.062 316.047 257.094 315.953 261.312H329.312C329.312 258.844 329.062 256.719 328.562 254.938C328.062 253.156 327.328 251.797 326.359 250.859C325.391 249.891 324.219 249.406 322.844 249.406Z" fill="white"/>
</svg>
