<svg width="512" height="512" viewBox="0 0 512 512" fill="none" xmlns="http://www.w3.org/2000/svg">
<path d="M164.5 272.938C164.5 277.062 163.672 280.703 162.016 283.859C160.359 287.016 158.016 289.484 154.984 291.266C151.984 293.047 148.438 293.938 144.344 293.938C142.438 293.938 140.594 293.812 138.812 293.562C137.031 293.344 135.281 292.969 133.562 292.438C131.844 291.875 130.125 291.141 128.406 290.234V276.781C130.906 278.406 133.5 279.641 136.188 280.484C138.875 281.328 141.359 281.75 143.641 281.75C145.328 281.75 146.719 281.422 147.812 280.766C148.938 280.109 149.766 279.219 150.297 278.094C150.859 276.969 151.141 275.703 151.141 274.297C151.141 272.797 150.906 271.484 150.438 270.359C149.969 269.203 149.062 268.062 147.719 266.938C146.406 265.781 144.469 264.453 141.906 262.953C139.906 261.766 138.094 260.547 136.469 259.297C134.875 258.047 133.5 256.672 132.344 255.172C131.219 253.641 130.359 251.875 129.766 249.875C129.172 247.875 128.875 245.516 128.875 242.797C128.844 238.922 129.594 235.531 131.125 232.625C132.688 229.719 134.922 227.469 137.828 225.875C140.766 224.25 144.281 223.453 148.375 223.484C151.156 223.484 153.875 223.859 156.531 224.609C159.219 225.359 161.797 226.422 164.266 227.797L160.656 239.422C158.438 238.078 156.344 237.094 154.375 236.469C152.406 235.812 150.562 235.484 148.844 235.484C147.344 235.484 146.078 235.781 145.047 236.375C144.047 236.938 143.281 237.719 142.75 238.719C142.25 239.719 142 240.859 142 242.141C142 243.766 142.25 245.141 142.75 246.266C143.25 247.391 144.188 248.5 145.562 249.594C146.969 250.656 148.984 251.938 151.609 253.438C154.453 255.094 156.828 256.859 158.734 258.734C160.641 260.578 162.078 262.656 163.047 264.969C164.016 267.25 164.5 269.906 164.5 272.938ZM189.859 239.609C193.797 239.609 197.125 240.578 199.844 242.516C202.594 244.453 204.672 247.203 206.078 250.766C207.484 254.297 208.188 258.484 208.188 263.328V270.359H183.156C183.219 274.953 184.062 278.344 185.688 280.531C187.312 282.688 189.797 283.766 193.141 283.766C195.359 283.766 197.453 283.484 199.422 282.922C201.422 282.328 203.547 281.328 205.797 279.922V290.328C203.703 291.578 201.469 292.484 199.094 293.047C196.719 293.641 194.156 293.938 191.406 293.938C186.594 293.938 182.672 292.859 179.641 290.703C176.609 288.516 174.391 285.422 172.984 281.422C171.578 277.391 170.875 272.609 170.875 267.078C170.875 261.172 171.578 256.188 172.984 252.125C174.422 248.031 176.547 244.922 179.359 242.797C182.172 240.672 185.672 239.609 189.859 239.609ZM190.141 249.406C188.078 249.406 186.438 250.344 185.219 252.219C184 254.062 183.344 257.094 183.25 261.312H196.609C196.609 258.844 196.359 256.719 195.859 254.938C195.359 253.156 194.625 251.797 193.656 250.859C192.688 249.891 191.516 249.406 190.141 249.406ZM234.906 239.516C240 239.516 243.875 241.094 246.531 244.25C249.219 247.375 250.562 252.047 250.562 258.266V293H241.422L239.406 285.969H239.125C238.062 287.75 236.922 289.234 235.703 290.422C234.516 291.609 233.156 292.484 231.625 293.047C230.094 293.641 228.297 293.938 226.234 293.938C223.328 293.938 220.969 293.156 219.156 291.594C217.375 290.031 216.078 288 215.266 285.5C214.453 283 214.047 280.344 214.047 277.531C214.047 272.062 215.562 267.922 218.594 265.109C221.625 262.297 225.938 260.781 231.531 260.562L238.047 260.281V258.172C238.047 255.297 237.594 253.156 236.688 251.75C235.812 250.312 234.359 249.594 232.328 249.594C230.828 249.594 229.188 249.891 227.406 250.484C225.625 251.078 223.672 252 221.547 253.25L218.078 243.922C220.453 242.484 223.062 241.391 225.906 240.641C228.75 239.891 231.75 239.516 234.906 239.516ZM238.047 268.625L234.531 268.812C231.875 268.938 229.891 269.688 228.578 271.062C227.297 272.406 226.656 274.375 226.656 276.969C226.656 279.312 227.047 281.062 227.828 282.219C228.641 283.375 229.812 283.953 231.344 283.953C233.312 283.953 234.922 283 236.172 281.094C237.422 279.188 238.047 276.625 238.047 273.406V268.625ZM289.141 277.625C289.141 281.188 288.469 284.188 287.125 286.625C285.812 289.031 283.891 290.859 281.359 292.109C278.859 293.328 275.844 293.938 272.312 293.938C269.781 293.938 267.359 293.688 265.047 293.188C262.766 292.719 260.609 291.984 258.578 290.984V278.891C260.266 280.047 262.219 281.047 264.438 281.891C266.656 282.703 268.906 283.109 271.188 283.109C272.938 283.109 274.281 282.703 275.219 281.891C276.156 281.078 276.625 279.891 276.625 278.328C276.625 277.453 276.438 276.641 276.062 275.891C275.688 275.109 274.938 274.297 273.812 273.453C272.688 272.578 271 271.578 268.75 270.453C266.594 269.266 264.75 267.906 263.219 266.375C261.688 264.844 260.516 263.094 259.703 261.125C258.891 259.156 258.484 256.922 258.484 254.422C258.484 249.797 259.922 246.156 262.797 243.5C265.672 240.844 269.609 239.516 274.609 239.516C277.172 239.516 279.578 239.875 281.828 240.594C284.109 241.281 286.344 242.297 288.531 243.641L285.109 253.25C283.609 252.25 282.031 251.406 280.375 250.719C278.719 250.031 277.031 249.688 275.312 249.688C273.781 249.688 272.609 250.062 271.797 250.812C270.984 251.531 270.578 252.531 270.578 253.812C270.578 254.719 270.766 255.5 271.141 256.156C271.516 256.812 272.25 257.547 273.344 258.359C274.469 259.141 276.109 260.188 278.266 261.5C280.422 262.75 282.312 264.109 283.938 265.578C285.562 267.047 286.828 268.75 287.734 270.688C288.672 272.625 289.141 274.938 289.141 277.625ZM335.125 266.609C335.125 270.266 334.75 273.734 334 277.016C333.281 280.297 332.125 283.203 330.531 285.734C328.969 288.266 326.906 290.266 324.344 291.734C321.812 293.203 318.719 293.938 315.062 293.938C311.656 293.938 308.703 293.219 306.203 291.781C303.703 290.344 301.641 288.375 300.016 285.875C298.391 283.344 297.172 280.438 296.359 277.156C295.578 273.844 295.188 270.328 295.188 266.609C295.188 261.328 295.875 256.656 297.25 252.594C298.656 248.5 300.828 245.297 303.766 242.984C306.734 240.672 310.562 239.516 315.25 239.516C319.281 239.516 322.781 240.562 325.75 242.656C328.75 244.75 331.062 247.812 332.688 251.844C334.312 255.844 335.125 260.766 335.125 266.609ZM307.844 266.797C307.844 270.422 308.094 273.469 308.594 275.938C309.125 278.406 309.922 280.266 310.984 281.516C312.078 282.766 313.469 283.391 315.156 283.391C316.875 283.391 318.25 282.781 319.281 281.562C320.344 280.312 321.109 278.438 321.578 275.938C322.078 273.438 322.328 270.328 322.328 266.609C322.328 262.922 322.078 259.859 321.578 257.422C321.109 254.984 320.344 253.156 319.281 251.938C318.25 250.719 316.875 250.109 315.156 250.109C312.594 250.109 310.734 251.469 309.578 254.188C308.422 256.906 307.844 261.109 307.844 266.797ZM367.562 239.516C372 239.516 375.406 241.125 377.781 244.344C380.188 247.531 381.391 252.172 381.391 258.266V293H368.922V261.875C368.922 258.188 368.547 255.406 367.797 253.531C367.047 251.625 365.625 250.672 363.531 250.672C360.906 250.672 359.062 251.953 358 254.516C356.969 257.078 356.453 261.484 356.453 267.734V293H343.984V240.5H353.875L355.188 247.203H355.984C356.766 245.547 357.719 244.156 358.844 243.031C359.969 241.875 361.266 241 362.734 240.406C364.203 239.812 365.812 239.516 367.562 239.516Z" fill="white"/>
</svg>
