<svg width="512" height="512" viewBox="0 0 512 512" fill="none" xmlns="http://www.w3.org/2000/svg">
<path d="M146.547 272.938C146.547 277.062 145.719 280.703 144.062 283.859C142.406 287.016 140.062 289.484 137.031 291.266C134.031 293.047 130.484 293.938 126.391 293.938C124.484 293.938 122.641 293.812 120.859 293.562C119.078 293.344 117.328 292.969 115.609 292.438C113.891 291.875 112.172 291.141 110.453 290.234V276.781C112.953 278.406 115.547 279.641 118.234 280.484C120.922 281.328 123.406 281.75 125.688 281.75C127.375 281.75 128.766 281.422 129.859 280.766C130.984 280.109 131.812 279.219 132.344 278.094C132.906 276.969 133.188 275.703 133.188 274.297C133.188 272.797 132.953 271.484 132.484 270.359C132.016 269.203 131.109 268.062 129.766 266.938C128.453 265.781 126.516 264.453 123.953 262.953C121.953 261.766 120.141 260.547 118.516 259.297C116.922 258.047 115.547 256.672 114.391 255.172C113.266 253.641 112.406 251.875 111.812 249.875C111.219 247.875 110.922 245.516 110.922 242.797C110.891 238.922 111.641 235.531 113.172 232.625C114.734 229.719 116.969 227.469 119.875 225.875C122.812 224.25 126.328 223.453 130.422 223.484C133.203 223.484 135.922 223.859 138.578 224.609C141.266 225.359 143.844 226.422 146.312 227.797L142.703 239.422C140.484 238.078 138.391 237.094 136.422 236.469C134.453 235.812 132.609 235.484 130.891 235.484C129.391 235.484 128.125 235.781 127.094 236.375C126.094 236.938 125.328 237.719 124.797 238.719C124.297 239.719 124.047 240.859 124.047 242.141C124.047 243.766 124.297 245.141 124.797 246.266C125.297 247.391 126.234 248.5 127.609 249.594C129.016 250.656 131.031 251.938 133.656 253.438C136.5 255.094 138.875 256.859 140.781 258.734C142.688 260.578 144.125 262.656 145.094 264.969C146.062 267.25 146.547 269.906 146.547 272.938ZM171.906 239.609C175.844 239.609 179.172 240.578 181.891 242.516C184.641 244.453 186.719 247.203 188.125 250.766C189.531 254.297 190.234 258.484 190.234 263.328V270.359H165.203C165.266 274.953 166.109 278.344 167.734 280.531C169.359 282.688 171.844 283.766 175.188 283.766C177.406 283.766 179.5 283.484 181.469 282.922C183.469 282.328 185.594 281.328 187.844 279.922V290.328C185.75 291.578 183.516 292.484 181.141 293.047C178.766 293.641 176.203 293.938 173.453 293.938C168.641 293.938 164.719 292.859 161.688 290.703C158.656 288.516 156.438 285.422 155.031 281.422C153.625 277.391 152.922 272.609 152.922 267.078C152.922 261.172 153.625 256.188 155.031 252.125C156.469 248.031 158.594 244.922 161.406 242.797C164.219 240.672 167.719 239.609 171.906 239.609ZM172.188 249.406C170.125 249.406 168.484 250.344 167.266 252.219C166.047 254.062 165.391 257.094 165.297 261.312H178.656C178.656 258.844 178.406 256.719 177.906 254.938C177.406 253.156 176.672 251.797 175.703 250.859C174.734 249.891 173.562 249.406 172.188 249.406ZM216.953 239.516C222.047 239.516 225.922 241.094 228.578 244.25C231.266 247.375 232.609 252.047 232.609 258.266V293H223.469L221.453 285.969H221.172C220.109 287.75 218.969 289.234 217.75 290.422C216.562 291.609 215.203 292.484 213.672 293.047C212.141 293.641 210.344 293.938 208.281 293.938C205.375 293.938 203.016 293.156 201.203 291.594C199.422 290.031 198.125 288 197.312 285.5C196.5 283 196.094 280.344 196.094 277.531C196.094 272.062 197.609 267.922 200.641 265.109C203.672 262.297 207.984 260.781 213.578 260.562L220.094 260.281V258.172C220.094 255.297 219.641 253.156 218.734 251.75C217.859 250.312 216.406 249.594 214.375 249.594C212.875 249.594 211.234 249.891 209.453 250.484C207.672 251.078 205.719 252 203.594 253.25L200.125 243.922C202.5 242.484 205.109 241.391 207.953 240.641C210.797 239.891 213.797 239.516 216.953 239.516ZM220.094 268.625L216.578 268.812C213.922 268.938 211.938 269.688 210.625 271.062C209.344 272.406 208.703 274.375 208.703 276.969C208.703 279.312 209.094 281.062 209.875 282.219C210.688 283.375 211.859 283.953 213.391 283.953C215.359 283.953 216.969 283 218.219 281.094C219.469 279.188 220.094 276.625 220.094 273.406V268.625ZM271.188 277.625C271.188 281.188 270.516 284.188 269.172 286.625C267.859 289.031 265.938 290.859 263.406 292.109C260.906 293.328 257.891 293.938 254.359 293.938C251.828 293.938 249.406 293.688 247.094 293.188C244.812 292.719 242.656 291.984 240.625 290.984V278.891C242.312 280.047 244.266 281.047 246.484 281.891C248.703 282.703 250.953 283.109 253.234 283.109C254.984 283.109 256.328 282.703 257.266 281.891C258.203 281.078 258.672 279.891 258.672 278.328C258.672 277.453 258.484 276.641 258.109 275.891C257.734 275.109 256.984 274.297 255.859 273.453C254.734 272.578 253.047 271.578 250.797 270.453C248.641 269.266 246.797 267.906 245.266 266.375C243.734 264.844 242.562 263.094 241.75 261.125C240.938 259.156 240.531 256.922 240.531 254.422C240.531 249.797 241.969 246.156 244.844 243.5C247.719 240.844 251.656 239.516 256.656 239.516C259.219 239.516 261.625 239.875 263.875 240.594C266.156 241.281 268.391 242.297 270.578 243.641L267.156 253.25C265.656 252.25 264.078 251.406 262.422 250.719C260.766 250.031 259.078 249.688 257.359 249.688C255.828 249.688 254.656 250.062 253.844 250.812C253.031 251.531 252.625 252.531 252.625 253.812C252.625 254.719 252.812 255.5 253.188 256.156C253.562 256.812 254.297 257.547 255.391 258.359C256.516 259.141 258.156 260.188 260.312 261.5C262.469 262.75 264.359 264.109 265.984 265.578C267.609 267.047 268.875 268.75 269.781 270.688C270.719 272.625 271.188 274.938 271.188 277.625ZM317.172 266.609C317.172 270.266 316.797 273.734 316.047 277.016C315.328 280.297 314.172 283.203 312.578 285.734C311.016 288.266 308.953 290.266 306.391 291.734C303.859 293.203 300.766 293.938 297.109 293.938C293.703 293.938 290.75 293.219 288.25 291.781C285.75 290.344 283.688 288.375 282.062 285.875C280.438 283.344 279.219 280.438 278.406 277.156C277.625 273.844 277.234 270.328 277.234 266.609C277.234 261.328 277.922 256.656 279.297 252.594C280.703 248.5 282.875 245.297 285.812 242.984C288.781 240.672 292.609 239.516 297.297 239.516C301.328 239.516 304.828 240.562 307.797 242.656C310.797 244.75 313.109 247.812 314.734 251.844C316.359 255.844 317.172 260.766 317.172 266.609ZM289.891 266.797C289.891 270.422 290.141 273.469 290.641 275.938C291.172 278.406 291.969 280.266 293.031 281.516C294.125 282.766 295.516 283.391 297.203 283.391C298.922 283.391 300.297 282.781 301.328 281.562C302.391 280.312 303.156 278.438 303.625 275.938C304.125 273.438 304.375 270.328 304.375 266.609C304.375 262.922 304.125 259.859 303.625 257.422C303.156 254.984 302.391 253.156 301.328 251.938C300.297 250.719 298.922 250.109 297.203 250.109C294.641 250.109 292.781 251.469 291.625 254.188C290.469 256.906 289.891 261.109 289.891 266.797ZM349.609 239.516C354.047 239.516 357.453 241.125 359.828 244.344C362.234 247.531 363.438 252.172 363.438 258.266V293H350.969V261.875C350.969 258.188 350.594 255.406 349.844 253.531C349.094 251.625 347.672 250.672 345.578 250.672C342.953 250.672 341.109 251.953 340.047 254.516C339.016 257.078 338.5 261.484 338.5 267.734V293H326.031V240.5H335.922L337.234 247.203H338.031C338.812 245.547 339.766 244.156 340.891 243.031C342.016 241.875 343.312 241 344.781 240.406C346.25 239.812 347.859 239.516 349.609 239.516ZM402.062 277.625C402.062 281.188 401.391 284.188 400.047 286.625C398.734 289.031 396.812 290.859 394.281 292.109C391.781 293.328 388.766 293.938 385.234 293.938C382.703 293.938 380.281 293.688 377.969 293.188C375.688 292.719 373.531 291.984 371.5 290.984V278.891C373.188 280.047 375.141 281.047 377.359 281.891C379.578 282.703 381.828 283.109 384.109 283.109C385.859 283.109 387.203 282.703 388.141 281.891C389.078 281.078 389.547 279.891 389.547 278.328C389.547 277.453 389.359 276.641 388.984 275.891C388.609 275.109 387.859 274.297 386.734 273.453C385.609 272.578 383.922 271.578 381.672 270.453C379.516 269.266 377.672 267.906 376.141 266.375C374.609 264.844 373.438 263.094 372.625 261.125C371.812 259.156 371.406 256.922 371.406 254.422C371.406 249.797 372.844 246.156 375.719 243.5C378.594 240.844 382.531 239.516 387.531 239.516C390.094 239.516 392.5 239.875 394.75 240.594C397.031 241.281 399.266 242.297 401.453 243.641L398.031 253.25C396.531 252.25 394.953 251.406 393.297 250.719C391.641 250.031 389.953 249.688 388.234 249.688C386.703 249.688 385.531 250.062 384.719 250.812C383.906 251.531 383.5 252.531 383.5 253.812C383.5 254.719 383.688 255.5 384.062 256.156C384.438 256.812 385.172 257.547 386.266 258.359C387.391 259.141 389.031 260.188 391.188 261.5C393.344 262.75 395.234 264.109 396.859 265.578C398.484 267.047 399.75 268.75 400.656 270.688C401.594 272.625 402.062 274.938 402.062 277.625Z" fill="white"/>
</svg>
