<svg width="512" height="512" viewBox="0 0 512 512" fill="none" xmlns="http://www.w3.org/2000/svg">
<path fill-rule="evenodd" clip-rule="evenodd" d="M182.805 137.551C170.308 125.054 150.047 125.054 137.55 137.551C125.054 150.047 125.054 170.309 137.55 182.805L210.745 256L137.55 329.195C125.054 341.691 125.054 361.953 137.55 374.449C150.047 386.946 170.309 386.946 182.805 374.449L256 301.255L329.194 374.449C341.691 386.946 361.952 386.946 374.449 374.449C386.946 361.953 386.946 341.691 374.449 329.195L301.255 256L374.449 182.805C386.946 170.309 386.946 150.047 374.449 137.551C361.952 125.054 341.691 125.054 329.194 137.551L256 210.745L182.805 137.551Z" fill="white"/>
</svg>
