<svg width="320" height="192" viewBox="0 0 320 192" fill="none" xmlns="http://www.w3.org/2000/svg">
<g clip-path="url(#clip0_12_488)">
<rect x="106.667" y="15" width="213.333" height="14.25" fill="#F7F7F7"/>
<rect x="106.667" y="44.25" width="213.333" height="15" fill="#F7F7F7"/>
<rect y="73.5" width="320" height="15" fill="#F7F7F7"/>
<rect y="132.75" width="320" height="15" fill="#F7F7F7"/>
<rect y="103.5" width="320" height="15" fill="#F7F7F7"/>
<rect y="162.75" width="320" height="14.25" fill="#F7F7F7"/>
<rect x="106.667" width="213.333" height="15" fill="#B90B2E"/>
<rect x="106.667" y="29.25" width="213.333" height="15" fill="#B90B2E"/>
<rect x="106.667" y="59.25" width="213.333" height="14.25" fill="#B90B2E"/>
<rect y="118.5" width="320" height="14.25" fill="#B90B2E"/>
<rect y="88.5" width="320" height="15" fill="#B90B2E"/>
<rect y="147.75" width="320" height="15" fill="#B90B2E"/>
<rect y="177" width="320" height="15" fill="#B90B2E"/>
<rect width="150" height="103.5" fill="#002564"/>
<path d="M12.5 4.8125L13.8372 8.65949L17.9091 8.74247L14.6637 11.203L15.843 15.1013L12.5 12.775L9.15697 15.1013L10.3363 11.203L7.09087 8.74247L11.1628 8.65949L12.5 4.8125Z" fill="white"/>
<path d="M37.5 4.8125L38.8372 8.65949L42.9091 8.74247L39.6637 11.203L40.843 15.1013L37.5 12.775L34.157 15.1013L35.3363 11.203L32.0909 8.74247L36.1628 8.65949L37.5 4.8125Z" fill="white"/>
<path d="M62.5 4.8125L63.8372 8.65949L67.9091 8.74247L64.6637 11.203L65.843 15.1013L62.5 12.775L59.157 15.1013L60.3363 11.203L57.0909 8.74247L61.1628 8.65949L62.5 4.8125Z" fill="white"/>
<path d="M87.5 4.8125L88.8372 8.65949L92.9091 8.74247L89.6637 11.203L90.843 15.1013L87.5 12.775L84.157 15.1013L85.3363 11.203L82.0909 8.74247L86.1628 8.65949L87.5 4.8125Z" fill="white"/>
<path d="M112.5 4.8125L113.837 8.65949L117.909 8.74247L114.664 11.203L115.843 15.1013L112.5 12.775L109.157 15.1013L110.336 11.203L107.091 8.74247L111.163 8.65949L112.5 4.8125Z" fill="white"/>
<path d="M137.5 4.8125L138.837 8.65949L142.909 8.74247L139.664 11.203L140.843 15.1013L137.5 12.775L134.157 15.1013L135.336 11.203L132.091 8.74247L136.163 8.65949L137.5 4.8125Z" fill="white"/>
<path d="M12.5 25.5625L13.8372 29.4095L17.9091 29.4925L14.6637 31.953L15.843 35.8513L12.5 33.525L9.15697 35.8513L10.3363 31.953L7.09087 29.4925L11.1628 29.4095L12.5 25.5625Z" fill="white"/>
<path d="M37.5 25.5625L38.8372 29.4095L42.9091 29.4925L39.6637 31.953L40.843 35.8513L37.5 33.525L34.157 35.8513L35.3363 31.953L32.0909 29.4925L36.1628 29.4095L37.5 25.5625Z" fill="white"/>
<path d="M62.5 25.5625L63.8372 29.4095L67.9091 29.4925L64.6637 31.953L65.843 35.8513L62.5 33.525L59.157 35.8513L60.3363 31.953L57.0909 29.4925L61.1628 29.4095L62.5 25.5625Z" fill="white"/>
<path d="M87.5 25.5625L88.8372 29.4095L92.9091 29.4925L89.6637 31.953L90.843 35.8513L87.5 33.525L84.157 35.8513L85.3363 31.953L82.0909 29.4925L86.1628 29.4095L87.5 25.5625Z" fill="white"/>
<path d="M112.5 25.5625L113.837 29.4095L117.909 29.4925L114.664 31.953L115.843 35.8513L112.5 33.525L109.157 35.8513L110.336 31.953L107.091 29.4925L111.163 29.4095L112.5 25.5625Z" fill="white"/>
<path d="M137.5 25.5625L138.837 29.4095L142.909 29.4925L139.664 31.953L140.843 35.8513L137.5 33.525L134.157 35.8513L135.336 31.953L132.091 29.4925L136.163 29.4095L137.5 25.5625Z" fill="white"/>
<path d="M12.5 46.3125L13.8372 50.1595L17.9091 50.2425L14.6637 52.703L15.843 56.6013L12.5 54.275L9.15697 56.6013L10.3363 52.703L7.09087 50.2425L11.1628 50.1595L12.5 46.3125Z" fill="white"/>
<path d="M37.5 46.3125L38.8372 50.1595L42.9091 50.2425L39.6637 52.703L40.843 56.6013L37.5 54.275L34.157 56.6013L35.3363 52.703L32.0909 50.2425L36.1628 50.1595L37.5 46.3125Z" fill="white"/>
<path d="M62.5 46.3125L63.8372 50.1595L67.9091 50.2425L64.6637 52.703L65.843 56.6013L62.5 54.275L59.157 56.6013L60.3363 52.703L57.0909 50.2425L61.1628 50.1595L62.5 46.3125Z" fill="white"/>
<path d="M87.5 46.3125L88.8372 50.1595L92.9091 50.2425L89.6637 52.703L90.843 56.6013L87.5 54.275L84.157 56.6013L85.3363 52.703L82.0909 50.2425L86.1628 50.1595L87.5 46.3125Z" fill="white"/>
<path d="M112.5 46.3125L113.837 50.1595L117.909 50.2425L114.664 52.703L115.843 56.6013L112.5 54.275L109.157 56.6013L110.336 52.703L107.091 50.2425L111.163 50.1595L112.5 46.3125Z" fill="white"/>
<path d="M137.5 46.3125L138.837 50.1595L142.909 50.2425L139.664 52.703L140.843 56.6013L137.5 54.275L134.157 56.6013L135.336 52.703L132.091 50.2425L136.163 50.1595L137.5 46.3125Z" fill="white"/>
<path d="M12.5 67.0625L13.8372 70.9095L17.9091 70.9925L14.6637 73.453L15.843 77.3513L12.5 75.025L9.15697 77.3513L10.3363 73.453L7.09087 70.9925L11.1628 70.9095L12.5 67.0625Z" fill="white"/>
<path d="M37.5 67.0625L38.8372 70.9095L42.9091 70.9925L39.6637 73.453L40.843 77.3513L37.5 75.025L34.157 77.3513L35.3363 73.453L32.0909 70.9925L36.1628 70.9095L37.5 67.0625Z" fill="white"/>
<path d="M62.5 67.0625L63.8372 70.9095L67.9091 70.9925L64.6637 73.453L65.843 77.3513L62.5 75.025L59.157 77.3513L60.3363 73.453L57.0909 70.9925L61.1628 70.9095L62.5 67.0625Z" fill="white"/>
<path d="M87.5 67.0625L88.8372 70.9095L92.9091 70.9925L89.6637 73.453L90.843 77.3513L87.5 75.025L84.157 77.3513L85.3363 73.453L82.0909 70.9925L86.1628 70.9095L87.5 67.0625Z" fill="white"/>
<path d="M112.5 67.0625L113.837 70.9095L117.909 70.9925L114.664 73.453L115.843 77.3513L112.5 75.025L109.157 77.3513L110.336 73.453L107.091 70.9925L111.163 70.9095L112.5 67.0625Z" fill="white"/>
<path d="M137.5 67.0625L138.837 70.9095L142.909 70.9925L139.664 73.453L140.843 77.3513L137.5 75.025L134.157 77.3513L135.336 73.453L132.091 70.9925L136.163 70.9095L137.5 67.0625Z" fill="white"/>
<path d="M12.5 87.8125L13.8372 91.6595L17.9091 91.7425L14.6637 94.203L15.843 98.1013L12.5 95.775L9.15697 98.1013L10.3363 94.203L7.09087 91.7425L11.1628 91.6595L12.5 87.8125Z" fill="white"/>
<path d="M37.5 87.8125L38.8372 91.6595L42.9091 91.7425L39.6637 94.203L40.843 98.1013L37.5 95.775L34.157 98.1013L35.3363 94.203L32.0909 91.7425L36.1628 91.6595L37.5 87.8125Z" fill="white"/>
<path d="M62.5 87.8125L63.8372 91.6595L67.9091 91.7425L64.6637 94.203L65.843 98.1013L62.5 95.775L59.157 98.1013L60.3363 94.203L57.0909 91.7425L61.1628 91.6595L62.5 87.8125Z" fill="white"/>
<path d="M87.5 87.8125L88.8372 91.6595L92.9091 91.7425L89.6637 94.203L90.843 98.1013L87.5 95.775L84.157 98.1013L85.3363 94.203L82.0909 91.7425L86.1628 91.6595L87.5 87.8125Z" fill="white"/>
<path d="M112.5 87.8125L113.837 91.6595L117.909 91.7425L114.664 94.203L115.843 98.1013L112.5 95.775L109.157 98.1013L110.336 94.203L107.091 91.7425L111.163 91.6595L112.5 87.8125Z" fill="white"/>
<path d="M137.5 87.8125L138.837 91.6595L142.909 91.7425L139.664 94.203L140.843 98.1013L137.5 95.775L134.157 98.1013L135.336 94.203L132.091 91.7425L136.163 91.6595L137.5 87.8125Z" fill="white"/>
<path d="M25.5 15.8125L26.8372 19.6595L30.9091 19.7425L27.6637 22.203L28.843 26.1013L25.5 23.775L22.157 26.1013L23.3363 22.203L20.0909 19.7425L24.1628 19.6595L25.5 15.8125Z" fill="white"/>
<path d="M50.25 15.8125L51.5872 19.6595L55.6591 19.7425L52.4137 22.203L53.593 26.1013L50.25 23.775L46.907 26.1013L48.0863 22.203L44.8409 19.7425L48.9128 19.6595L50.25 15.8125Z" fill="white"/>
<path d="M75 15.8125L76.3372 19.6595L80.4091 19.7425L77.1637 22.203L78.343 26.1013L75 23.775L71.657 26.1013L72.8363 22.203L69.5909 19.7425L73.6628 19.6595L75 15.8125Z" fill="white"/>
<path d="M99.75 15.8125L101.087 19.6595L105.159 19.7425L101.914 22.203L103.093 26.1013L99.75 23.775L96.407 26.1013L97.5863 22.203L94.3409 19.7425L98.4128 19.6595L99.75 15.8125Z" fill="white"/>
<path d="M124.5 15.8125L125.837 19.6595L129.909 19.7425L126.664 22.203L127.843 26.1013L124.5 23.775L121.157 26.1013L122.336 22.203L119.091 19.7425L123.163 19.6595L124.5 15.8125Z" fill="white"/>
<path d="M25.5 36.146L26.8372 39.993L30.9091 40.076L27.6637 42.5365L28.843 46.4348L25.5 44.1085L22.157 46.4348L23.3363 42.5365L20.0909 40.076L24.1628 39.993L25.5 36.146Z" fill="white"/>
<path d="M50.25 36.146L51.5872 39.993L55.6591 40.076L52.4137 42.5365L53.593 46.4348L50.25 44.1085L46.907 46.4348L48.0863 42.5365L44.8409 40.076L48.9128 39.993L50.25 36.146Z" fill="white"/>
<path d="M75 36.146L76.3372 39.993L80.4091 40.076L77.1637 42.5365L78.343 46.4348L75 44.1085L71.657 46.4348L72.8363 42.5365L69.5909 40.076L73.6628 39.993L75 36.146Z" fill="white"/>
<path d="M99.75 36.146L101.087 39.993L105.159 40.076L101.914 42.5365L103.093 46.4348L99.75 44.1085L96.407 46.4348L97.5863 42.5365L94.3409 40.076L98.4128 39.993L99.75 36.146Z" fill="white"/>
<path d="M124.5 36.146L125.837 39.993L129.909 40.076L126.664 42.5365L127.843 46.4348L124.5 44.1085L121.157 46.4348L122.336 42.5365L119.091 40.076L123.163 39.993L124.5 36.146Z" fill="white"/>
<path d="M25.5 56.479L26.8372 60.326L30.9091 60.409L27.6637 62.8695L28.843 66.7678L25.5 64.4415L22.157 66.7678L23.3363 62.8695L20.0909 60.409L24.1628 60.326L25.5 56.479Z" fill="white"/>
<path d="M50.25 56.479L51.5872 60.326L55.6591 60.409L52.4137 62.8695L53.593 66.7678L50.25 64.4415L46.907 66.7678L48.0863 62.8695L44.8409 60.409L48.9128 60.326L50.25 56.479Z" fill="white"/>
<path d="M75 56.479L76.3372 60.326L80.4091 60.409L77.1637 62.8695L78.343 66.7678L75 64.4415L71.657 66.7678L72.8363 62.8695L69.5909 60.409L73.6628 60.326L75 56.479Z" fill="white"/>
<path d="M99.75 56.479L101.087 60.326L105.159 60.409L101.914 62.8695L103.093 66.7678L99.75 64.4415L96.407 66.7678L97.5863 62.8695L94.3409 60.409L98.4128 60.326L99.75 56.479Z" fill="white"/>
<path d="M124.5 56.479L125.837 60.326L129.909 60.409L126.664 62.8695L127.843 66.7678L124.5 64.4415L121.157 66.7678L122.336 62.8695L119.091 60.409L123.163 60.326L124.5 56.479Z" fill="white"/>
<path d="M25.5 76.8125L26.8372 80.6595L30.9091 80.7425L27.6637 83.203L28.843 87.1013L25.5 84.775L22.157 87.1013L23.3363 83.203L20.0909 80.7425L24.1628 80.6595L25.5 76.8125Z" fill="white"/>
<path d="M50.25 76.8125L51.5872 80.6595L55.6591 80.7425L52.4137 83.203L53.593 87.1013L50.25 84.775L46.907 87.1013L48.0863 83.203L44.8409 80.7425L48.9128 80.6595L50.25 76.8125Z" fill="white"/>
<path d="M75 76.8125L76.3372 80.6595L80.4091 80.7425L77.1637 83.203L78.343 87.1013L75 84.775L71.657 87.1013L72.8363 83.203L69.5909 80.7425L73.6628 80.6595L75 76.8125Z" fill="white"/>
<path d="M99.75 76.8125L101.087 80.6595L105.159 80.7425L101.914 83.203L103.093 87.1013L99.75 84.775L96.407 87.1013L97.5863 83.203L94.3409 80.7425L98.4128 80.6595L99.75 76.8125Z" fill="white"/>
<path d="M124.5 76.8125L125.837 80.6595L129.909 80.7425L126.664 83.203L127.843 87.1013L124.5 84.775L121.157 87.1013L122.336 83.203L119.091 80.7425L123.163 80.6595L124.5 76.8125Z" fill="white"/>
</g>
<defs>
<clipPath id="clip0_12_488">
<rect width="320" height="192" fill="white"/>
</clipPath>
</defs>
</svg>
