<svg width="320" height="192" viewBox="0 0 320 192" fill="none" xmlns="http://www.w3.org/2000/svg">
<g clip-path="url(#clip0_55_1096)">
<rect x="213" width="107" height="192" fill="#CE1126"/>
<rect x="107" width="106" height="192" fill="#F7F7F7"/>
<rect width="107" height="192" fill="#006847"/>
<path d="M155.974 62.4253C155.425 60.2383 155.729 59.5763 157.661 58.7523C161.403 57.1573 171.008 58.2443 174.379 60.6443C176 61.7993 177.601 62.7433 177.936 62.7433C179.164 62.7433 184.648 69.3903 187.837 74.7433C191.637 81.1233 191.986 84.2883 190.1 95.2433C189.167 100.667 188.67 102.116 188.557 99.7433C188.394 96.3093 188.37 96.2903 187.275 98.7433C186.185 101.185 186.143 101.15 185.48 97.2433C185.002 94.4223 184.74 93.9803 184.592 95.7433C184.387 98.1933 184.362 98.2003 183.349 96.1083C182.78 94.9333 181.235 93.3953 179.916 92.6893C178.597 91.9833 177.482 90.6943 177.439 89.8243C177.382 88.6863 177.212 88.6143 176.831 89.5663C176.438 90.5513 175.693 90.3163 173.914 88.6463C172.601 87.4113 171.317 86.6113 171.062 86.8663C169.65 88.2783 172.415 91.9723 178.09 96.2593C181.626 98.9303 184.518 101.733 184.518 102.488C184.518 103.243 184.889 103.632 185.342 103.352C185.795 103.072 186.133 103.833 186.092 105.043C186.051 106.253 185.456 107.603 184.768 108.043C184.081 108.483 183.518 109.443 183.518 110.178C183.518 112.043 179.095 114.743 176.04 114.743C174.638 114.743 172.583 114.18 171.474 113.493C169.819 112.468 169.295 112.504 168.553 113.695C167.121 115.998 168.469 116.975 172.133 116.287C175.326 115.688 176.781 116.844 174.562 118.216C174.036 118.541 173.859 119.468 174.169 120.275C174.587 121.366 173.956 121.743 171.708 121.743C170.045 121.743 168.509 122.271 168.294 122.915C167.631 124.904 155.937 125.248 153.06 123.363C151.701 122.472 149.898 121.743 149.053 121.743C148.185 121.743 147.518 120.874 147.518 119.743C147.518 118.062 146.841 117.738 143.268 117.711C139.572 117.684 139.241 117.51 140.725 116.382C142.334 115.16 142.334 114.982 140.725 113.283C139.109 111.577 139.124 111.508 141.018 111.998C142.118 112.283 143.805 112.84 144.768 113.237C145.947 113.722 146.518 113.498 146.518 112.551C146.518 111.778 144.943 110.575 143.018 109.879C141.093 109.183 139.518 108.193 139.518 107.678C139.518 107.164 138.703 106.743 137.707 106.743C134.592 106.743 131.518 102.998 131.518 99.2043C131.518 97.3003 131.082 95.7433 130.549 95.7433C130.017 95.7433 129.84 95.0683 130.156 94.2433C131.009 92.0223 132.413 92.4183 133.7 95.2433C134.326 96.6183 135.409 97.7433 136.106 97.7433C136.803 97.7433 138.258 98.8683 139.339 100.243C141.478 102.962 144.518 103.598 144.518 101.326C144.518 100.547 145.081 99.6603 145.768 99.3553C146.456 99.0503 145.501 98.9003 143.646 99.0223C141.158 99.1853 139.989 98.7193 139.186 97.2433C138.588 96.1433 137.248 93.9633 136.208 92.3993C135.019 90.6083 134.481 88.4463 134.758 86.5633C135.122 84.0823 134.755 83.3883 132.607 82.5003C130.43 81.5993 130.308 81.3603 131.842 80.9983C132.846 80.7613 134.508 81.3293 135.535 82.2593C137.31 83.8653 137.594 83.7653 141.175 80.2883C144.022 77.5233 144.62 76.4243 143.614 75.8023C142.563 75.1533 142.729 74.5323 144.4 72.8613C146.345 70.9163 146.296 70.2923 144.225 70.6393C142.882 70.8643 145.185 67.3963 148.432 64.3063C150.129 62.6913 151.518 61.9303 151.518 62.6153C151.518 63.3003 151.988 63.5713 152.562 63.2163C153.136 62.8613 154.289 63.1383 155.125 63.8323C156.438 64.9213 156.553 64.7313 155.974 62.4253Z" fill="url(#paint0_linear_55_1096)"/>
<path d="M137.693 71.4093C137.515 69.8503 137.613 67.9373 137.912 67.1593C138.211 66.3803 139.199 65.7433 140.109 65.7433C141.452 65.7433 141.533 66.0203 140.541 67.2153C139.564 68.3923 139.64 69.0083 140.919 70.2873C143.3 72.6683 142.954 74.9443 140.268 74.5633C138.638 74.3313 137.929 73.4623 137.693 71.4093Z" fill="url(#paint1_linear_55_1096)"/>
<path d="M120.359 98.9193C118.366 97.5233 118.583 94.7453 120.89 92.1083C123.433 89.2023 124.255 90.7223 123.903 97.6763C123.572 104.213 123.679 104.626 125.785 104.926C127.496 105.169 128.26 106.248 129.055 109.543C129.626 111.909 130.424 113.802 130.83 113.751C132.498 113.543 137.422 117.237 138.433 119.455C140.105 123.126 139.772 123.794 136.396 123.537C133.414 123.31 130.078 120.123 130.714 118.109C130.864 117.633 128.919 115.217 126.392 112.74C122.291 108.723 121.822 107.808 122.038 104.251C122.219 101.269 121.796 99.9263 120.359 98.9193Z" fill="url(#paint2_linear_55_1096)"/>
<path d="M196.268 93.4933C196.956 93.6313 197.518 93.0683 197.518 92.2433C197.518 90.4353 198.685 90.3103 200.318 91.9433C202.018 93.6433 201.805 97.2603 199.914 98.8293C197.572 100.773 196.177 104.914 197.574 105.777C198.871 106.579 196.155 112.743 194.504 112.743C192.453 112.743 189.518 116.311 189.518 118.805C189.518 121.56 186.377 123.743 182.412 123.743C181.093 123.743 180.643 124.173 181.106 124.993C181.619 125.902 181.492 125.95 180.642 125.17C178.646 123.34 181.962 116.902 185.274 116.177C190.404 115.053 190.518 114.923 190.518 110.188C190.518 106 190.791 105.466 193.446 104.464C195.999 103.5 196.309 102.967 195.868 100.301C194.925 94.6093 195.005 93.2403 196.268 93.4933Z" fill="url(#paint3_linear_55_1096)"/>
<path d="M138.481 125.537C137.677 125.776 137.915 125.284 139.012 124.443C140.108 123.602 141.254 123.316 141.558 123.808C141.863 124.301 143.755 124.493 145.764 124.236C147.772 123.979 149.69 124.213 150.026 124.756C150.361 125.299 152.634 125.743 155.077 125.743C158.975 125.743 159.535 126.018 159.654 127.993L159.79 130.243L160.224 127.993C160.705 125.493 160.704 125.494 162.962 126.36C164.206 126.837 164.31 127.289 163.421 128.36C161.388 130.809 163.651 129.833 167.171 126.743C171.772 122.703 178.867 122.692 177.812 126.726C177.085 129.507 172.037 131.3 168.926 129.883C165.63 128.381 165.518 128.409 165.518 130.743C165.518 131.843 165.18 132.79 164.768 132.847C157.166 133.905 153.31 132.903 155.381 130.408C156.339 129.254 156.346 128.755 155.412 128.178C154.69 127.731 154.47 127.856 154.861 128.488C155.269 129.15 154.232 129.543 152.082 129.543C150.195 129.543 148.171 129.84 147.584 130.202C146.998 130.564 146.518 130.347 146.518 129.719C146.518 129.09 145.956 128.77 145.268 129.008C144.581 129.245 143.102 128.463 141.981 127.27C140.861 126.077 139.286 125.297 138.481 125.537Z" fill="url(#paint4_linear_55_1096)"/>
</g>
<defs>
<linearGradient id="paint0_linear_55_1096" x1="119" y1="49" x2="188" y2="125.5" gradientUnits="userSpaceOnUse">
<stop stop-color="#CEAA88"/>
<stop offset="1" stop-color="#62351C"/>
</linearGradient>
<linearGradient id="paint1_linear_55_1096" x1="119" y1="49" x2="188" y2="125.5" gradientUnits="userSpaceOnUse">
<stop stop-color="#CEAA88"/>
<stop offset="1" stop-color="#62351C"/>
</linearGradient>
<linearGradient id="paint2_linear_55_1096" x1="119" y1="49" x2="188" y2="125.5" gradientUnits="userSpaceOnUse">
<stop stop-color="#CEAA88"/>
<stop offset="1" stop-color="#62351C"/>
</linearGradient>
<linearGradient id="paint3_linear_55_1096" x1="119" y1="49" x2="188" y2="125.5" gradientUnits="userSpaceOnUse">
<stop stop-color="#CEAA88"/>
<stop offset="1" stop-color="#62351C"/>
</linearGradient>
<linearGradient id="paint4_linear_55_1096" x1="119" y1="49" x2="188" y2="125.5" gradientUnits="userSpaceOnUse">
<stop stop-color="#CEAA88"/>
<stop offset="1" stop-color="#62351C"/>
</linearGradient>
<clipPath id="clip0_55_1096">
<rect width="320" height="192" fill="white"/>
</clipPath>
</defs>
</svg>
