<svg width="512" height="512" viewBox="0 0 512 512" fill="none" xmlns="http://www.w3.org/2000/svg">
<g clip-path="url(#clip0_7_2682)">
<path fill-rule="evenodd" clip-rule="evenodd" d="M284.081 154.778L167.8 123.62C110.096 338.973 221.766 387.341 221.766 387.341C221.766 387.341 342.659 401.288 400.363 185.935L284.081 154.778ZM235.02 179.253C235.02 179.253 233.2 186.047 231.361 196.142C220.764 192.808 205.82 190.415 204.791 202.948C203.786 215.196 217.33 226.354 227.589 232.981C227.504 251.267 230.852 269.16 242.423 277.378L232.901 312.914L232.893 312.941C232.887 312.966 232.88 312.991 232.874 313.016L210.636 307.057C206.424 305.928 202.095 308.428 200.967 312.64C199.838 316.852 202.337 321.181 206.549 322.309L267.558 338.657C271.77 339.785 276.099 337.286 277.228 333.074C278.356 328.862 275.857 324.533 271.645 323.404L248.328 317.156C248.337 317.123 248.346 317.089 248.355 317.056L257.778 281.889C272.429 281.239 284.683 267.09 294.004 250.77C306.2 250.158 323.492 247.264 328.742 236.161C334.115 224.799 319.995 219.399 309.154 216.985C312.608 207.324 314.428 200.53 314.428 200.53L235.02 179.253ZM213.654 207.202C214.276 199.611 225.109 202.971 229.92 204.852C229.045 210.754 228.289 217.269 227.89 223.937C222.96 221.14 213.049 214.565 213.654 207.202ZM298.264 242.788C301.251 236.815 303.854 230.796 306.046 225.248C311.161 226.028 322.193 228.536 318.94 235.414C315.786 242.084 303.939 242.829 298.264 242.788Z" fill="white"/>
</g>
<defs>
<clipPath id="clip0_7_2682">
<rect width="512" height="512" fill="white"/>
</clipPath>
</defs>
</svg>
