<svg width="512" height="512" viewBox="0 0 512 512" fill="none" xmlns="http://www.w3.org/2000/svg">
<g clip-path="url(#clip0_7_2715)">
<path fill-rule="evenodd" clip-rule="evenodd" d="M255.479 109.636L140.085 109.399C140.524 323.109 255.954 340.424 255.954 340.424C255.954 340.424 371.313 323.583 370.873 109.873L255.479 109.636ZM216.197 144.388C216.197 144.388 216.211 151.13 217.033 160.935C206.394 160.456 191.966 161.917 194.148 173.782C196.28 185.376 211.602 192.378 222.752 195.992C227.245 212.953 234.817 228.704 247.578 233.469L247.65 268.403C247.65 268.548 247.654 268.692 247.662 268.835L225.583 268.789C221.404 268.781 218.022 272.162 218.031 276.342C218.039 280.522 221.435 283.917 225.614 283.925L286.158 284.05C290.337 284.058 293.719 280.677 293.71 276.497C293.702 272.318 290.306 268.923 286.127 268.914L263.639 268.868C263.647 268.725 263.65 268.581 263.65 268.436L263.578 233.649C276.569 229.123 284.189 213.246 288.659 196.121C299.792 192.551 315.07 185.614 317.153 174.035C319.285 162.186 304.868 160.66 294.232 161.093C295.013 151.292 295 144.55 295 144.55L216.197 144.388ZM203.412 175.54C202.091 168.354 212.956 168.801 217.878 169.359C218.543 175.042 219.473 181.263 220.77 187.539C215.509 186.161 204.694 182.51 203.412 175.54ZM290.605 187.678C291.877 181.408 292.78 175.192 293.422 169.513C298.35 168.976 309.186 168.584 307.896 175.756C306.644 182.712 295.868 186.318 290.605 187.678Z" fill="white"/>
<path d="M75.4666 173.521C75.379 173.828 74.9412 175.579 74.5471 177.374C74.153 179.169 73.5838 181.621 73.2335 182.847C69.7744 195.852 69.3366 205.572 71.9637 212.491C73.9341 217.832 75.0287 219.803 75.8607 219.803C76.9115 219.847 81.2025 212.885 82.954 208.243C85.7563 201.019 85.8876 200.362 85.8876 193.531C85.9314 186.657 85.8439 186.35 82.954 180.527C82.0783 178.819 80.5895 176.805 79.057 175.36C76.5612 172.952 75.7293 172.558 75.4666 173.521Z" fill="#5CA904"/>
<path d="M75.4666 173.521C75.379 173.828 74.9412 175.579 74.5471 177.374C74.153 179.169 73.5838 181.621 73.2335 182.847C69.7744 195.852 69.3366 205.572 71.9637 212.491C73.9341 217.832 75.0287 219.803 75.8607 219.803C76.9115 219.847 81.2025 212.885 82.954 208.243C85.7563 201.019 85.8876 200.362 85.8876 193.531C85.9314 186.657 85.8439 186.35 82.954 180.527C82.0783 178.819 80.5895 176.805 79.057 175.36C76.5612 172.952 75.7293 172.558 75.4666 173.521Z" fill="white"/>
<path d="M433.992 174.835C430.664 177.987 428.913 180.614 427.468 184.905C426.198 188.583 426.111 198.085 427.293 202.113C429.526 209.776 434.999 220.022 436.663 219.715C437.276 219.628 439.027 216.563 440.166 213.717C441.129 211.221 442.399 204.303 442.399 201.457C442.399 198.085 441.129 190.641 439.115 182.629C438.809 181.315 438.152 178.644 437.714 176.761C437.232 174.835 436.707 173.215 436.444 173.127C436.225 173.039 435.13 173.828 433.992 174.835Z" fill="#5CA904"/>
<path d="M433.992 174.835C430.664 177.987 428.913 180.614 427.468 184.905C426.198 188.583 426.111 198.085 427.293 202.113C429.526 209.776 434.999 220.022 436.663 219.715C437.276 219.628 439.027 216.563 440.166 213.717C441.129 211.221 442.399 204.303 442.399 201.457C442.399 198.085 441.129 190.641 439.115 182.629C438.809 181.315 438.152 178.644 437.714 176.761C437.232 174.835 436.707 173.215 436.444 173.127C436.225 173.039 435.13 173.828 433.992 174.835Z" fill="white"/>
<path d="M54.4493 205.704C54.0115 206.142 54.1428 211.177 54.6245 213.76C54.8872 215.074 55.2812 217.701 55.5002 219.628C56.4635 228.429 59.0031 237.536 62.2432 243.929C64.739 248.921 70.475 254.832 72.8832 254.875C73.7151 254.875 73.8465 254.569 74.153 251.898C74.8536 245.155 73.8465 233.946 71.8323 226.852C69.1614 217.263 64.126 209.645 58.9155 207.236C55.8067 205.835 54.712 205.441 54.4493 205.704Z" fill="#5CA904"/>
<path d="M54.4493 205.704C54.0115 206.142 54.1428 211.177 54.6245 213.76C54.8872 215.074 55.2812 217.701 55.5002 219.628C56.4635 228.429 59.0031 237.536 62.2432 243.929C64.739 248.921 70.475 254.832 72.8832 254.875C73.7151 254.875 73.8465 254.569 74.153 251.898C74.8536 245.155 73.8465 233.946 71.8323 226.852C69.1614 217.263 64.126 209.645 58.9155 207.236C55.8067 205.835 54.712 205.441 54.4493 205.704Z" fill="white"/>
<path d="M455.973 206.098C452.163 207.324 447.96 211.046 445.333 215.424C440.166 224.138 437.276 238.587 438.239 250.935C438.59 255.401 438.984 255.751 441.655 253.912C447.96 249.533 451.857 242.703 454.79 231.012C456.016 226.239 456.848 221.817 456.848 220.503C456.848 219.759 457.155 217.657 457.505 215.774C457.855 213.892 458.162 210.87 458.162 209.075C458.162 205.66 457.987 205.441 455.973 206.098Z" fill="#5CA904"/>
<path d="M455.973 206.098C452.163 207.324 447.96 211.046 445.333 215.424C440.166 224.138 437.276 238.587 438.239 250.935C438.59 255.401 438.984 255.751 441.655 253.912C447.96 249.533 451.857 242.703 454.79 231.012C456.016 226.239 456.848 221.817 456.848 220.503C456.848 219.759 457.155 217.657 457.505 215.774C457.855 213.892 458.162 210.87 458.162 209.075C458.162 205.66 457.987 205.441 455.973 206.098Z" fill="white"/>
<path d="M94.6885 227.159C88.9088 234.427 83.5669 244.761 81.2025 253.124C79.3635 259.517 79.1445 260.962 79.1445 266.741C79.1445 274.229 79.9765 277.031 83.4793 281.541C84.8805 283.336 85.0118 283.38 85.5811 282.636C86.1941 281.804 93.156 267.705 94.382 264.946C94.7323 264.114 95.3015 262.844 95.608 262.188C95.9583 261.487 96.221 260.655 96.221 260.261C96.221 259.911 96.4838 259.079 96.834 258.466C97.4908 257.196 98.3666 254.394 99.4174 250.278C101.125 243.622 101.475 237.492 100.424 232.545C99.8115 229.48 97.7535 224.663 97.053 224.663C96.834 224.663 95.7832 225.802 94.6885 227.159Z" fill="#5CA904"/>
<path d="M94.6885 227.159C88.9088 234.427 83.5669 244.761 81.2025 253.124C79.3635 259.517 79.1445 260.962 79.1445 266.741C79.1445 274.229 79.9765 277.031 83.4793 281.541C84.8805 283.336 85.0118 283.38 85.5811 282.636C86.1941 281.804 93.156 267.705 94.382 264.946C94.7323 264.114 95.3015 262.844 95.608 262.188C95.9583 261.487 96.221 260.655 96.221 260.261C96.221 259.911 96.4838 259.079 96.834 258.466C97.4908 257.196 98.3666 254.394 99.4174 250.278C101.125 243.622 101.475 237.492 100.424 232.545C99.8115 229.48 97.7535 224.663 97.053 224.663C96.834 224.663 95.7832 225.802 94.6885 227.159Z" fill="white"/>
<path d="M414.507 225.845C412.8 228.429 411.311 234.515 411.311 238.675C411.355 242.878 412.887 251.197 414.201 254.35C414.551 255.138 414.814 256.058 414.814 256.408C414.814 256.758 415.077 257.678 415.427 258.466C415.777 259.254 416.478 261.005 417.003 262.319C419.63 268.887 426.636 282.898 427.293 282.898C428.475 282.898 431.19 278.826 432.503 275.104C433.16 273.265 433.335 271.47 433.291 266.873C433.291 260.655 432.766 257.634 430.708 251.591C430.095 249.884 429.482 247.913 429.263 247.213C427.687 242.09 417.091 224.663 415.514 224.663C415.383 224.663 414.901 225.189 414.507 225.845Z" fill="#5CA904"/>
<path d="M414.507 225.845C412.8 228.429 411.311 234.515 411.311 238.675C411.355 242.878 412.887 251.197 414.201 254.35C414.551 255.138 414.814 256.058 414.814 256.408C414.814 256.758 415.077 257.678 415.427 258.466C415.777 259.254 416.478 261.005 417.003 262.319C419.63 268.887 426.636 282.898 427.293 282.898C428.475 282.898 431.19 278.826 432.503 275.104C433.16 273.265 433.335 271.47 433.291 266.873C433.291 260.655 432.766 257.634 430.708 251.591C430.095 249.884 429.482 247.913 429.263 247.213C427.687 242.09 417.091 224.663 415.514 224.663C415.383 224.663 414.901 225.189 414.507 225.845Z" fill="white"/>
<path d="M50.5086 239.463C49.9832 239.944 50.2459 248.526 50.9465 253.08C51.7784 258.947 52.7855 264.158 53.5736 266.697C54.712 270.507 55.938 274.185 56.3321 274.929C58.3025 278.826 58.9593 280.008 60.5794 282.504C62.5497 285.482 69.2052 292.225 70.9566 292.969C71.4821 293.232 72.7519 293.932 73.8027 294.545C76.5174 296.122 77.0429 295.771 76.6926 292.663C75.9482 285.131 72.927 271.864 70.5188 265.603C70.1685 264.64 69.5555 263.063 69.1614 262.1C68.3733 260.042 67.0597 257.196 66.3153 255.97C63.2503 250.891 61.4551 248.483 58.8279 245.724C55.7629 242.571 50.9902 238.937 50.5086 239.463Z" fill="#5CA904"/>
<path d="M50.5086 239.463C49.9832 239.944 50.2459 248.526 50.9465 253.08C51.7784 258.947 52.7855 264.158 53.5736 266.697C54.712 270.507 55.938 274.185 56.3321 274.929C58.3025 278.826 58.9593 280.008 60.5794 282.504C62.5497 285.482 69.2052 292.225 70.9566 292.969C71.4821 293.232 72.7519 293.932 73.8027 294.545C76.5174 296.122 77.0429 295.771 76.6926 292.663C75.9482 285.131 72.927 271.864 70.5188 265.603C70.1685 264.64 69.5555 263.063 69.1614 262.1C68.3733 260.042 67.0597 257.196 66.3153 255.97C63.2503 250.891 61.4551 248.483 58.8279 245.724C55.7629 242.571 50.9902 238.937 50.5086 239.463Z" fill="white"/>
<path d="M458.6 241.389C454.703 244.323 452.82 246.206 450.061 249.884C444.544 257.152 440.472 267.354 437.845 280.271C436.882 285 435.919 290.648 435.656 293.1C435.349 295.859 435.919 296.034 439.203 294.239C444.457 291.349 449.755 286.138 453.214 280.49C454.134 279.001 456.848 273.265 456.848 272.828C456.848 272.609 457.111 271.777 457.461 270.989C458.819 267.836 460.264 261.531 461.446 253.693C462.146 249.052 462.365 239.725 461.796 239.419C461.577 239.288 460.176 240.207 458.6 241.389Z" fill="#5CA904"/>
<path d="M458.6 241.389C454.703 244.323 452.82 246.206 450.061 249.884C444.544 257.152 440.472 267.354 437.845 280.271C436.882 285 435.919 290.648 435.656 293.1C435.349 295.859 435.919 296.034 439.203 294.239C444.457 291.349 449.755 286.138 453.214 280.49C454.134 279.001 456.848 273.265 456.848 272.828C456.848 272.609 457.111 271.777 457.461 270.989C458.819 267.836 460.264 261.531 461.446 253.693C462.146 249.052 462.365 239.725 461.796 239.419C461.577 239.288 460.176 240.207 458.6 241.389Z" fill="white"/>
<path d="M96.8779 273.878C96.5276 274.71 96.2211 275.936 96.2211 276.593C96.2211 277.206 95.8708 278.958 95.4767 280.446C94.3821 284.562 94.3821 304.135 95.4767 308.732C97.4033 316.57 98.3228 319.153 101.038 324.933C103.665 330.537 109.226 338.944 110.276 338.944C111.24 338.944 112.466 335.485 113.298 330.406C113.473 329.18 113.867 327.341 114.217 326.246C115.093 323.094 114.961 306.236 113.998 302.602C111.765 294.064 109.532 288.372 106.73 283.993C106.248 283.249 105.679 282.285 105.46 281.804C104.759 280.359 98.6731 272.696 98.0601 272.477C97.7536 272.39 97.2282 273.003 96.8779 273.878Z" fill="#5CA904"/>
<path d="M96.8779 273.878C96.5276 274.71 96.2211 275.936 96.2211 276.593C96.2211 277.206 95.8708 278.958 95.4767 280.446C94.3821 284.562 94.3821 304.135 95.4767 308.732C97.4033 316.57 98.3228 319.153 101.038 324.933C103.665 330.537 109.226 338.944 110.276 338.944C111.24 338.944 112.466 335.485 113.298 330.406C113.473 329.18 113.867 327.341 114.217 326.246C115.093 323.094 114.961 306.236 113.998 302.602C111.765 294.064 109.532 288.372 106.73 283.993C106.248 283.249 105.679 282.285 105.46 281.804C104.759 280.359 98.6731 272.696 98.0601 272.477C97.7536 272.39 97.2282 273.003 96.8779 273.878Z" fill="white"/>
<path d="M411.398 275.761C408.771 279.045 405.093 284.65 404.261 286.576C404.042 287.058 403.692 287.802 403.473 288.153C401.897 290.824 399.795 296.954 398.35 302.996C397.431 306.937 397.299 322.568 398.175 325.809C398.482 326.903 398.876 328.874 399.095 330.187C399.708 334.216 400.977 338.156 401.766 338.682C402.379 339.032 402.685 338.944 403.21 338.288C404.042 337.193 407.852 331.545 408.509 330.406C409.691 328.392 413.5 320.598 413.5 320.16C413.5 319.897 413.763 319.066 414.113 318.277C417.31 310.746 418.711 298.705 417.704 287.496C417.353 283.643 416.828 279.79 416.609 278.958C416.346 278.126 416.127 276.856 416.127 276.112C416.127 274.667 415.295 272.784 414.551 272.521C414.288 272.434 412.843 273.878 411.398 275.761Z" fill="#5CA904"/>
<path d="M411.398 275.761C408.771 279.045 405.093 284.65 404.261 286.576C404.042 287.058 403.692 287.802 403.473 288.153C401.897 290.824 399.795 296.954 398.35 302.996C397.431 306.937 397.299 322.568 398.175 325.809C398.482 326.903 398.876 328.874 399.095 330.187C399.708 334.216 400.977 338.156 401.766 338.682C402.379 339.032 402.685 338.944 403.21 338.288C404.042 337.193 407.852 331.545 408.509 330.406C409.691 328.392 413.5 320.598 413.5 320.16C413.5 319.897 413.763 319.066 414.113 318.277C417.31 310.746 418.711 298.705 417.704 287.496C417.353 283.643 416.828 279.79 416.609 278.958C416.346 278.126 416.127 276.856 416.127 276.112C416.127 274.667 415.295 272.784 414.551 272.521C414.288 272.434 412.843 273.878 411.398 275.761Z" fill="white"/>
<path d="M50.5085 289.379C50.1145 289.992 51.9973 295.859 53.8801 299.975C56.9889 306.849 63.6881 313.549 72.4453 318.584C74.3281 319.679 76.1671 320.773 76.5174 320.992C79.3197 322.656 93.8566 329.749 94.5134 329.749C95.2578 329.749 95.3453 329.53 95.1264 328.085C94.6448 325.239 93.5501 322.043 91.536 317.708C88.2958 310.659 81.3776 303.872 71.482 297.917C69.2051 296.56 61.1923 292.794 57.2516 291.218C55.938 290.736 54.2741 289.992 53.6173 289.641C52.2162 288.941 50.8588 288.853 50.5085 289.379Z" fill="#5CA904"/>
<path d="M50.5085 289.379C50.1145 289.992 51.9973 295.859 53.8801 299.975C56.9889 306.849 63.6881 313.549 72.4453 318.584C74.3281 319.679 76.1671 320.773 76.5174 320.992C79.3197 322.656 93.8566 329.749 94.5134 329.749C95.2578 329.749 95.3453 329.53 95.1264 328.085C94.6448 325.239 93.5501 322.043 91.536 317.708C88.2958 310.659 81.3776 303.872 71.482 297.917C69.2051 296.56 61.1923 292.794 57.2516 291.218C55.938 290.736 54.2741 289.992 53.6173 289.641C52.2162 288.941 50.8588 288.853 50.5085 289.379Z" fill="white"/>
<path d="M458.6 289.773C457.768 290.167 456.41 290.736 455.666 291.043C452.426 292.4 451.068 292.969 449.711 293.538C447.609 294.458 442.311 297.173 440.604 298.18C439.772 298.705 438.808 299.231 438.458 299.406C437.845 299.668 436.444 300.675 432.547 303.565C430.139 305.404 424.884 310.965 423.352 313.33C421.644 316.044 418.754 322.043 418.754 322.919C418.754 323.225 418.448 324.232 418.098 325.064C417.222 327.122 417.222 329.749 418.054 329.749C418.579 329.749 434.649 321.78 438.458 319.635C446.471 315.081 453.608 308.688 457.155 302.821C459.344 299.231 462.453 290.386 461.884 289.466C461.49 288.853 460.395 288.985 458.6 289.773Z" fill="#5CA904"/>
<path d="M458.6 289.773C457.768 290.167 456.41 290.736 455.666 291.043C452.426 292.4 451.068 292.969 449.711 293.538C447.609 294.458 442.311 297.173 440.604 298.18C439.772 298.705 438.808 299.231 438.458 299.406C437.845 299.668 436.444 300.675 432.547 303.565C430.139 305.404 424.884 310.965 423.352 313.33C421.644 316.044 418.754 322.043 418.754 322.919C418.754 323.225 418.448 324.232 418.098 325.064C417.222 327.122 417.222 329.749 418.054 329.749C418.579 329.749 434.649 321.78 438.458 319.635C446.471 315.081 453.608 308.688 457.155 302.821C459.344 299.231 462.453 290.386 461.884 289.466C461.49 288.853 460.395 288.985 458.6 289.773Z" fill="white"/>
<path d="M60.5794 323.576C60.3167 323.97 60.7108 325.415 61.1487 325.809C61.28 325.94 61.893 326.728 62.506 327.56C67.8479 335.223 78.2252 345.031 85.4936 349.278C86.6759 349.978 88.077 350.767 88.5587 351.073C89.0403 351.38 89.8722 351.817 90.4415 352.08C91.0107 352.299 92.4556 352.956 93.7254 353.525C100.118 356.459 106.204 358.035 114.611 359.086C119.34 359.655 119.428 359.655 119.428 358.867C119.428 357.991 114.874 351.073 111.765 347.264C108.306 343.06 99.0673 334.653 96.6591 333.559C96.3088 333.384 95.4331 332.858 94.6887 332.377C92.8059 331.194 88.2959 328.83 87.0262 328.436C86.4131 328.217 84.8806 327.648 83.5671 327.166C79.9766 325.809 74.6347 324.626 69.5118 324.057C61.3238 323.181 60.8422 323.138 60.5794 323.576Z" fill="#5CA904"/>
<path d="M60.5794 323.576C60.3167 323.97 60.7108 325.415 61.1487 325.809C61.28 325.94 61.893 326.728 62.506 327.56C67.8479 335.223 78.2252 345.031 85.4936 349.278C86.6759 349.978 88.077 350.767 88.5587 351.073C89.0403 351.38 89.8722 351.817 90.4415 352.08C91.0107 352.299 92.4556 352.956 93.7254 353.525C100.118 356.459 106.204 358.035 114.611 359.086C119.34 359.655 119.428 359.655 119.428 358.867C119.428 357.991 114.874 351.073 111.765 347.264C108.306 343.06 99.0673 334.653 96.6591 333.559C96.3088 333.384 95.4331 332.858 94.6887 332.377C92.8059 331.194 88.2959 328.83 87.0262 328.436C86.4131 328.217 84.8806 327.648 83.5671 327.166C79.9766 325.809 74.6347 324.626 69.5118 324.057C61.3238 323.181 60.8422 323.138 60.5794 323.576Z" fill="white"/>
<path d="M448.529 323.444C436.05 324.583 430.27 326.027 422.038 330.056C415.777 333.165 411.661 336.054 406.407 341.265C400.189 347.351 392.045 358.341 393.008 359.349C393.359 359.655 401.065 358.779 404.962 357.947C411.836 356.502 415.821 355.101 422.257 351.861C425.147 350.416 431.277 346.651 431.89 345.95C432.022 345.819 432.985 345.031 434.08 344.199C438.721 340.696 444.588 334.61 448.923 328.874C452.295 324.364 452.601 323.751 451.769 323.444C451.375 323.313 450.85 323.225 450.587 323.269C450.28 323.269 449.361 323.4 448.529 323.444Z" fill="#5CA904"/>
<path d="M448.529 323.444C436.05 324.583 430.27 326.027 422.038 330.056C415.777 333.165 411.661 336.054 406.407 341.265C400.189 347.351 392.045 358.341 393.008 359.349C393.359 359.655 401.065 358.779 404.962 357.947C411.836 356.502 415.821 355.101 422.257 351.861C425.147 350.416 431.277 346.651 431.89 345.95C432.022 345.819 432.985 345.031 434.08 344.199C438.721 340.696 444.588 334.61 448.923 328.874C452.295 324.364 452.601 323.751 451.769 323.444C451.375 323.313 450.85 323.225 450.587 323.269C450.28 323.269 449.361 323.4 448.529 323.444Z" fill="white"/>
<path d="M120.128 325.239C119.296 326.115 121.135 337.193 122.974 342.666C123.237 343.367 123.631 344.549 123.806 345.293C124.594 348.052 127.046 354.094 128.185 356.021C128.404 356.371 129.061 357.597 129.674 358.736C131.075 361.319 133.658 365.347 134.402 366.135C134.709 366.486 135.847 367.843 136.942 369.157C140.839 373.886 146.444 378.921 151.873 382.424C154.456 384.131 155.288 384.394 155.376 383.475C155.901 377.432 153.537 364.909 150.472 357.553C149.509 355.189 146.969 350.154 146.137 348.796C145.655 348.052 145.13 347.176 144.955 346.826C144.254 345.25 140.445 340.652 137.205 337.368C133.965 334.128 126.915 328.436 126.171 328.436C125.996 328.436 125.514 328.173 125.164 327.823C123.981 326.816 120.391 324.977 120.128 325.239Z" fill="#5CA904"/>
<path d="M120.128 325.239C119.296 326.115 121.135 337.193 122.974 342.666C123.237 343.367 123.631 344.549 123.806 345.293C124.594 348.052 127.046 354.094 128.185 356.021C128.404 356.371 129.061 357.597 129.674 358.736C131.075 361.319 133.658 365.347 134.402 366.135C134.709 366.486 135.847 367.843 136.942 369.157C140.839 373.886 146.444 378.921 151.873 382.424C154.456 384.131 155.288 384.394 155.376 383.475C155.901 377.432 153.537 364.909 150.472 357.553C149.509 355.189 146.969 350.154 146.137 348.796C145.655 348.052 145.13 347.176 144.955 346.826C144.254 345.25 140.445 340.652 137.205 337.368C133.965 334.128 126.915 328.436 126.171 328.436C125.996 328.436 125.514 328.173 125.164 327.823C123.981 326.816 120.391 324.977 120.128 325.239Z" fill="white"/>
<path d="M390.513 325.852C389.812 326.29 388.893 326.816 388.542 326.991C388.192 327.166 387.01 327.866 385.915 328.611C378.734 333.383 371.466 340.477 367.7 346.388C364.197 351.949 360.694 359.743 359.644 364.34C359.468 365.172 359.118 366.748 358.855 367.843C357.586 373.01 357.016 376.95 357.016 380.278C357.016 382.249 357.148 384 357.279 384.175C357.936 384.832 367.043 378.001 371.685 373.316C378.209 366.792 382.325 360.575 386.528 350.985C390.031 343.016 393.621 326.684 392.22 325.371C392.001 325.195 391.257 325.414 390.513 325.852Z" fill="#5CA904"/>
<path d="M390.513 325.852C389.812 326.29 388.893 326.816 388.542 326.991C388.192 327.166 387.01 327.866 385.915 328.611C378.734 333.383 371.466 340.477 367.7 346.388C364.197 351.949 360.694 359.743 359.644 364.34C359.468 365.172 359.118 366.748 358.855 367.843C357.586 373.01 357.016 376.95 357.016 380.278C357.016 382.249 357.148 384 357.279 384.175C357.936 384.832 367.043 378.001 371.685 373.316C378.209 366.792 382.325 360.575 386.528 350.985C390.031 343.016 393.621 326.684 392.22 325.371C392.001 325.195 391.257 325.414 390.513 325.852Z" fill="white"/>
<path d="M91.6237 360.005C88.7776 360.356 85.9753 361.275 85.1872 362.063C84.8807 362.37 84.4428 362.589 84.1801 362.589C83.4795 362.589 81.7719 364.472 81.7719 365.303C81.7719 365.829 88.296 370.514 90.9669 371.915C91.3172 372.09 92.2367 372.616 92.9373 373.097C93.6816 373.579 94.6449 374.148 95.1266 374.411C95.6082 374.674 97.1845 375.549 98.6294 376.381C101.782 378.22 111.853 383.168 114.611 384.263C115.706 384.701 117.195 385.27 117.895 385.576C118.64 385.883 120.303 386.452 121.617 386.802C122.931 387.196 125.208 387.809 126.652 388.247C130.549 389.342 140.839 389.386 143.51 388.247C146.487 387.021 146.794 386.846 146.925 386.102C147.1 385.226 141.408 380.191 134.403 375.112C132.914 374.017 131.6 373.097 131.513 373.097C131.381 373.097 130.155 372.353 128.754 371.434C126.039 369.595 125.645 369.376 120.435 366.836C114.568 363.902 109.532 361.888 107.168 361.407C106.555 361.275 105.197 360.925 104.103 360.618C101.607 359.874 95.039 359.568 91.6237 360.005Z" fill="#5CA904"/>
<path d="M91.6237 360.005C88.7776 360.356 85.9753 361.275 85.1872 362.063C84.8807 362.37 84.4428 362.589 84.1801 362.589C83.4795 362.589 81.7719 364.472 81.7719 365.303C81.7719 365.829 88.296 370.514 90.9669 371.915C91.3172 372.09 92.2367 372.616 92.9373 373.097C93.6816 373.579 94.6449 374.148 95.1266 374.411C95.6082 374.674 97.1845 375.549 98.6294 376.381C101.782 378.22 111.853 383.168 114.611 384.263C115.706 384.701 117.195 385.27 117.895 385.576C118.64 385.883 120.303 386.452 121.617 386.802C122.931 387.196 125.208 387.809 126.652 388.247C130.549 389.342 140.839 389.386 143.51 388.247C146.487 387.021 146.794 386.846 146.925 386.102C147.1 385.226 141.408 380.191 134.403 375.112C132.914 374.017 131.6 373.097 131.513 373.097C131.381 373.097 130.155 372.353 128.754 371.434C126.039 369.595 125.645 369.376 120.435 366.836C114.568 363.902 109.532 361.888 107.168 361.407C106.555 361.275 105.197 360.925 104.103 360.618C101.607 359.874 95.039 359.568 91.6237 360.005Z" fill="white"/>
<path d="M412.406 359.962C409.034 360.312 405.356 361.231 401.678 362.633C400.364 363.114 398.744 363.683 398.131 363.902C397.518 364.077 396.643 364.428 396.161 364.69C395.723 364.953 393.84 365.873 392.045 366.748C383.945 370.689 374.487 377.126 367.744 383.3C364.767 386.058 364.767 386.715 367.744 387.853C374.75 390.48 386.835 389.035 397.956 384.263C400.715 383.037 405.444 380.891 406.057 380.541C406.407 380.322 408.29 379.359 410.216 378.352C412.143 377.388 414.332 376.162 415.033 375.725C415.777 375.243 416.74 374.674 417.222 374.411C417.704 374.148 418.711 373.579 419.411 373.097C420.156 372.616 421.031 372.09 421.382 371.915C421.732 371.74 423.265 370.777 424.797 369.726C426.33 368.675 427.643 367.843 427.774 367.843C427.906 367.843 428.563 367.405 429.263 366.88C431.19 365.479 430.971 364.34 428.431 362.676C427.205 361.932 426.023 361.275 425.76 361.275C425.498 361.275 424.753 361.012 424.096 360.662C422.608 359.918 416.39 359.524 412.406 359.962Z" fill="#5CA904"/>
<path d="M412.406 359.962C409.034 360.312 405.356 361.231 401.678 362.633C400.364 363.114 398.744 363.683 398.131 363.902C397.518 364.077 396.643 364.428 396.161 364.69C395.723 364.953 393.84 365.873 392.045 366.748C383.945 370.689 374.487 377.126 367.744 383.3C364.767 386.058 364.767 386.715 367.744 387.853C374.75 390.48 386.835 389.035 397.956 384.263C400.715 383.037 405.444 380.891 406.057 380.541C406.407 380.322 408.29 379.359 410.216 378.352C412.143 377.388 414.332 376.162 415.033 375.725C415.777 375.243 416.74 374.674 417.222 374.411C417.704 374.148 418.711 373.579 419.411 373.097C420.156 372.616 421.031 372.09 421.382 371.915C421.732 371.74 423.265 370.777 424.797 369.726C426.33 368.675 427.643 367.843 427.774 367.843C427.906 367.843 428.563 367.405 429.263 366.88C431.19 365.479 430.971 364.34 428.431 362.676C427.205 361.932 426.023 361.275 425.76 361.275C425.498 361.275 424.753 361.012 424.096 360.662C422.608 359.918 416.39 359.524 412.406 359.962Z" fill="white"/>
<path d="M162.119 361.494C161.9 361.582 161.156 361.757 160.499 361.888C158.923 362.238 158.923 363.333 160.411 365.522C161.024 366.442 161.725 367.58 161.944 368.062C162.163 368.544 162.732 369.507 163.214 370.251C163.695 370.952 164.264 371.959 164.527 372.441C164.79 372.922 165.359 373.885 165.841 374.63C166.322 375.33 166.892 376.338 167.154 376.819C167.417 377.301 167.942 378.22 168.38 378.877C168.774 379.534 169.913 381.285 170.832 382.818C175.123 389.692 181.91 397.486 186.858 401.296C189.879 403.616 194.17 405.63 197.629 406.331C201.088 407.075 202.358 406.856 202.533 405.587C202.752 404.229 201.176 399.019 199.337 394.771C197.629 390.831 196.754 389.211 194.652 385.883C193.951 384.832 193.426 383.912 193.426 383.781C193.426 383.65 191.981 381.636 190.186 379.315C184.669 372.09 177.619 365.916 172.19 363.508C169.3 362.238 163.432 361.056 162.119 361.494Z" fill="#5CA904"/>
<path d="M162.119 361.494C161.9 361.582 161.156 361.757 160.499 361.888C158.923 362.238 158.923 363.333 160.411 365.522C161.024 366.442 161.725 367.58 161.944 368.062C162.163 368.544 162.732 369.507 163.214 370.251C163.695 370.952 164.264 371.959 164.527 372.441C164.79 372.922 165.359 373.885 165.841 374.63C166.322 375.33 166.892 376.338 167.154 376.819C167.417 377.301 167.942 378.22 168.38 378.877C168.774 379.534 169.913 381.285 170.832 382.818C175.123 389.692 181.91 397.486 186.858 401.296C189.879 403.616 194.17 405.63 197.629 406.331C201.088 407.075 202.358 406.856 202.533 405.587C202.752 404.229 201.176 399.019 199.337 394.771C197.629 390.831 196.754 389.211 194.652 385.883C193.951 384.832 193.426 383.912 193.426 383.781C193.426 383.65 191.981 381.636 190.186 379.315C184.669 372.09 177.619 365.916 172.19 363.508C169.3 362.238 163.432 361.056 162.119 361.494Z" fill="white"/>
<path d="M344.537 362.151C339.94 363.333 338.626 363.99 333.591 367.712C327.899 371.871 321.812 378.877 317.302 386.452C316.383 387.985 312.486 396.041 311.785 397.836C310.691 400.682 309.596 405.368 309.859 406.112C310.209 406.944 312.004 406.988 315.42 406.2C323.827 404.36 332.628 396.523 341.341 383.168C343.136 380.41 348.828 371.039 349.266 370.032C349.441 369.682 349.967 368.763 350.448 368.062C350.93 367.318 351.455 366.442 351.631 366.092C351.762 365.741 352.244 364.997 352.681 364.428C353.732 363.07 353.338 362.282 351.412 361.713C349.266 361.144 348.172 361.188 344.537 362.151Z" fill="#5CA904"/>
<path d="M344.537 362.151C339.94 363.333 338.626 363.99 333.591 367.712C327.899 371.871 321.812 378.877 317.302 386.452C316.383 387.985 312.486 396.041 311.785 397.836C310.691 400.682 309.596 405.368 309.859 406.112C310.209 406.944 312.004 406.988 315.42 406.2C323.827 404.36 332.628 396.523 341.341 383.168C343.136 380.41 348.828 371.039 349.266 370.032C349.441 369.682 349.967 368.763 350.448 368.062C350.93 367.318 351.455 366.442 351.631 366.092C351.762 365.741 352.244 364.997 352.681 364.428C353.732 363.07 353.338 362.282 351.412 361.713C349.266 361.144 348.172 361.188 344.537 362.151Z" fill="white"/>
<path d="M124.901 394.552C123.456 394.771 120.916 395.165 119.209 395.384C109.05 396.873 101.388 401.646 98.5417 408.214C98.2352 408.87 98.1476 409.483 98.3228 409.571C98.9358 409.921 106.686 411.191 112.641 411.892C121.398 412.986 140.926 412.986 146.137 411.892C154.5 410.184 160.762 407.513 164.44 404.054C166.892 401.69 167.198 400.945 165.884 400.288C164.089 399.281 156.427 397.223 150.735 396.129C142.547 394.596 129.805 393.808 124.901 394.552Z" fill="#5CA904"/>
<path d="M124.901 394.552C123.456 394.771 120.916 395.165 119.209 395.384C109.05 396.873 101.388 401.646 98.5417 408.214C98.2352 408.87 98.1476 409.483 98.3228 409.571C98.9358 409.921 106.686 411.191 112.641 411.892C121.398 412.986 140.926 412.986 146.137 411.892C154.5 410.184 160.762 407.513 164.44 404.054C166.892 401.69 167.198 400.945 165.884 400.288C164.089 399.281 156.427 397.223 150.735 396.129C142.547 394.596 129.805 393.808 124.901 394.552Z" fill="white"/>
<path d="M376.282 394.334C375.932 394.421 373.261 394.728 370.371 394.99C365.38 395.472 360.957 396.173 356.579 397.267C355.484 397.53 353.908 397.88 353.076 398.055C349.66 398.844 345.632 400.507 345.632 401.164C345.632 401.733 348.741 404.886 350.667 406.2C352.375 407.338 356.841 409.483 358.549 409.921C359.293 410.096 360.476 410.447 361.176 410.666C361.92 410.928 364.372 411.498 366.649 411.892C372.385 412.986 390.951 412.986 399.708 411.892C406.757 411.06 413.588 409.878 414.069 409.483C415.208 408.476 409.603 401.427 406.319 399.807C405.356 399.281 404.218 398.712 403.867 398.537C401.59 397.223 396.03 395.691 390.951 394.99C387.316 394.509 377.421 394.027 376.282 394.334Z" fill="#5CA904"/>
<path d="M376.282 394.334C375.932 394.421 373.261 394.728 370.371 394.99C365.38 395.472 360.957 396.173 356.579 397.267C355.484 397.53 353.908 397.88 353.076 398.055C349.66 398.844 345.632 400.507 345.632 401.164C345.632 401.733 348.741 404.886 350.667 406.2C352.375 407.338 356.841 409.483 358.549 409.921C359.293 410.096 360.476 410.447 361.176 410.666C361.92 410.928 364.372 411.498 366.649 411.892C372.385 412.986 390.951 412.986 399.708 411.892C406.757 411.06 413.588 409.878 414.069 409.483C415.208 408.476 409.603 401.427 406.319 399.807C405.356 399.281 404.218 398.712 403.867 398.537C401.59 397.223 396.03 395.691 390.951 394.99C387.316 394.509 377.421 394.027 376.282 394.334Z" fill="white"/>
<path d="M177.663 410.578C172.321 411.498 167.636 412.505 165.622 413.205C164.615 413.556 163.52 413.818 163.126 413.818C162.688 413.818 161.725 414.081 160.937 414.431C160.149 414.782 158.616 415.395 157.521 415.789C143.335 421.306 133.833 430.019 132.782 438.514C132.52 440.396 132.607 440.966 133.045 440.966C133.921 440.966 143.597 439.214 148.983 438.076C150.691 437.725 152.442 437.463 152.924 437.463C153.756 437.463 156.558 436.893 162.557 435.405C175.43 432.296 184.888 428.093 190.886 422.751C194.564 419.51 199.249 412.461 198.33 411.541C196.71 409.921 185.019 409.352 177.663 410.578Z" fill="#5CA904"/>
<path d="M177.663 410.578C172.321 411.498 167.636 412.505 165.622 413.205C164.615 413.556 163.52 413.818 163.126 413.818C162.688 413.818 161.725 414.081 160.937 414.431C160.149 414.782 158.616 415.395 157.521 415.789C143.335 421.306 133.833 430.019 132.782 438.514C132.52 440.396 132.607 440.966 133.045 440.966C133.921 440.966 143.597 439.214 148.983 438.076C150.691 437.725 152.442 437.463 152.924 437.463C153.756 437.463 156.558 436.893 162.557 435.405C175.43 432.296 184.888 428.093 190.886 422.751C194.564 419.51 199.249 412.461 198.33 411.541C196.71 409.921 185.019 409.352 177.663 410.578Z" fill="white"/>
<path d="M316.295 410.666C314.982 411.104 313.887 411.629 313.887 411.848C313.887 412.111 314.5 413.468 315.201 414.869C316.777 417.978 321.55 423.232 324.834 425.422C327.329 427.042 333.941 430.588 335.386 431.026C335.824 431.158 337.619 431.727 339.283 432.34C342.129 433.303 343.311 433.653 349.617 435.449C350.974 435.843 352.419 436.149 352.9 436.149C353.338 436.149 355.002 436.412 356.578 436.762C362.358 438.076 366.036 438.776 367 438.776C367.569 438.776 369.233 439.039 370.721 439.389C374.881 440.353 379.785 441.141 380.004 440.878C380.31 440.572 379.172 435.886 378.384 434.179C375.976 428.837 369.714 422.882 363.146 419.554C362.052 419.029 360.87 418.416 360.519 418.241C359.6 417.715 357.104 416.664 355.046 415.876C354.083 415.526 352.506 414.957 351.543 414.563C340.947 410.666 322.776 408.652 316.295 410.666Z" fill="#5CA904"/>
<path d="M316.295 410.666C314.982 411.104 313.887 411.629 313.887 411.848C313.887 412.111 314.5 413.468 315.201 414.869C316.777 417.978 321.55 423.232 324.834 425.422C327.329 427.042 333.941 430.588 335.386 431.026C335.824 431.158 337.619 431.727 339.283 432.34C342.129 433.303 343.311 433.653 349.617 435.449C350.974 435.843 352.419 436.149 352.9 436.149C353.338 436.149 355.002 436.412 356.578 436.762C362.358 438.076 366.036 438.776 367 438.776C367.569 438.776 369.233 439.039 370.721 439.389C374.881 440.353 379.785 441.141 380.004 440.878C380.31 440.572 379.172 435.886 378.384 434.179C375.976 428.837 369.714 422.882 363.146 419.554C362.052 419.029 360.87 418.416 360.519 418.241C359.6 417.715 357.104 416.664 355.046 415.876C354.083 415.526 352.506 414.957 351.543 414.563C340.947 410.666 322.776 408.652 316.295 410.666Z" fill="white"/>
<path d="M213.349 419.51C211.904 420.255 209.802 421.393 208.663 422.05C201.833 426.035 196.403 432.515 195.966 437.244L195.834 438.557L198.505 438.689C201.964 438.864 205.467 437.288 208.401 434.31C210.765 431.902 212.736 428.093 216.238 419.16C216.72 417.89 216.457 417.934 213.349 419.51Z" fill="#5CA904"/>
<path d="M213.349 419.51C211.904 420.255 209.802 421.393 208.663 422.05C201.833 426.035 196.403 432.515 195.966 437.244L195.834 438.557L198.505 438.689C201.964 438.864 205.467 437.288 208.401 434.31C210.765 431.902 212.736 428.093 216.238 419.16C216.72 417.89 216.457 417.934 213.349 419.51Z" fill="white"/>
<path d="M296.592 419.817C297.249 421.919 298.343 424.765 298.737 425.553C298.956 425.947 299.613 427.261 300.182 428.399C301.977 432.165 302.284 432.559 304.867 434.923C307.889 437.638 310.647 438.776 314.237 438.776H316.821L316.514 437.025C316.339 436.061 315.726 434.441 315.157 433.391C314.588 432.383 313.931 431.157 313.712 430.676C312.749 428.487 306.4 423.407 300.883 420.43C296.854 418.241 296.066 418.153 296.592 419.817Z" fill="#5CA904"/>
<path d="M296.592 419.817C297.249 421.919 298.343 424.765 298.737 425.553C298.956 425.947 299.613 427.261 300.182 428.399C301.977 432.165 302.284 432.559 304.867 434.923C307.889 437.638 310.647 438.776 314.237 438.776H316.821L316.514 437.025C316.339 436.061 315.726 434.441 315.157 433.391C314.588 432.383 313.931 431.157 313.712 430.676C312.749 428.487 306.4 423.407 300.883 420.43C296.854 418.241 296.066 418.153 296.592 419.817Z" fill="white"/>
</g>
<defs>
<clipPath id="clip0_7_2715">
<rect width="512" height="512" fill="white"/>
</clipPath>
</defs>
</svg>
