<svg width="512" height="512" viewBox="0 0 512 512" fill="none" xmlns="http://www.w3.org/2000/svg">
<path fill-rule="evenodd" clip-rule="evenodd" d="M332.358 174.965C329.837 176.42 326.677 176.053 324.446 174.184C322.153 172.264 319.773 170.434 317.308 168.703C314.929 167.032 313.759 164.078 314.512 161.271L318.653 145.816C320.94 137.28 315.874 128.507 307.339 126.22L276.429 117.938C267.894 115.651 259.12 120.716 256.833 129.251L252.692 144.706C251.94 147.514 249.45 149.487 246.555 149.745C243.554 150.012 240.578 150.406 237.632 150.922C234.766 151.425 231.845 150.163 230.39 147.642L222.39 133.786C217.972 126.133 208.186 123.511 200.534 127.929L172.821 143.929C165.168 148.348 162.546 158.133 166.964 165.786L174.964 179.642C176.42 182.163 176.053 185.323 174.184 187.554C172.264 189.847 170.434 192.228 168.703 194.693C167.032 197.071 164.078 198.241 161.271 197.489L145.816 193.347C137.281 191.06 128.507 196.126 126.22 204.661L117.938 235.571C115.651 244.106 120.716 252.88 129.252 255.167L144.706 259.308C147.514 260.06 149.487 262.55 149.745 265.445C150.012 268.446 150.406 271.423 150.922 274.368C151.425 277.235 150.163 280.155 147.642 281.61L133.786 289.61C126.133 294.028 123.511 303.814 127.93 311.466L143.93 339.179C148.348 346.832 158.133 349.454 165.786 345.036L179.642 337.036C182.163 335.58 185.323 335.947 187.554 337.816C189.847 339.736 192.228 341.566 194.693 343.297C197.071 344.968 198.241 347.922 197.489 350.729L193.347 366.184C191.06 374.72 196.126 383.493 204.661 385.78L235.571 394.062C244.106 396.349 252.88 391.284 255.167 382.749L259.308 367.294C260.06 364.486 262.55 362.513 265.445 362.255C268.446 361.988 271.422 361.595 274.368 361.078C277.234 360.575 280.155 361.837 281.61 364.358L289.61 378.214C294.028 385.867 303.814 388.489 311.466 384.071L339.179 368.071C346.832 363.652 349.454 353.867 345.036 346.214L337.036 332.358C335.58 329.837 335.947 326.677 337.816 324.446C339.736 322.153 341.566 319.773 343.297 317.308C344.968 314.929 347.922 313.759 350.729 314.512L366.184 318.653C374.72 320.94 383.493 315.874 385.78 307.339L394.062 276.429C396.349 267.894 391.284 259.12 382.749 256.833L367.294 252.692C364.486 251.94 362.513 249.45 362.255 246.555C361.988 243.554 361.594 240.578 361.078 237.633C360.575 234.766 361.837 231.846 364.358 230.39L378.214 222.39C385.867 217.972 388.489 208.186 384.071 200.534L368.071 172.821C363.652 165.168 353.867 162.546 346.214 166.965L332.358 174.965ZM242.199 307.506C270.645 315.128 299.883 298.247 307.506 269.801C315.128 241.355 298.247 212.116 269.801 204.494C241.355 196.872 212.116 213.753 204.494 242.199C196.872 270.645 213.753 299.884 242.199 307.506Z" fill="white"/>
</svg>
