<svg width="512" height="512" viewBox="0 0 512 512" fill="none" xmlns="http://www.w3.org/2000/svg">
<path fill-rule="evenodd" clip-rule="evenodd" d="M223.428 120.506C218.783 117.597 212.564 119.914 211.145 125.208L177.238 251.749C176.317 255.188 177.877 258.892 180.952 260.688C227.064 287.627 246.153 285.671 266.871 283.548C287.602 281.425 309.965 279.133 362.663 305.454C367.254 307.747 372.9 305.342 374.228 300.385L408.336 173.091C409.303 169.483 407.532 165.618 404.202 163.926C350.276 136.521 327.001 139.628 305.977 142.434C285.294 145.195 266.79 147.665 223.428 120.506ZM105.141 357.963C102.854 366.499 107.919 375.272 116.455 377.559C124.99 379.846 133.764 374.781 136.051 366.245L200.657 125.132C202.944 116.596 197.879 107.823 189.343 105.536C180.808 103.249 172.034 108.314 169.747 116.849L105.141 357.963Z" fill="white"/>
</svg>
