<svg width="512" height="512" viewBox="0 0 512 512" fill="none" xmlns="http://www.w3.org/2000/svg">
<g clip-path="url(#clip0_4_1792)">
<g clip-path="url(#clip1_4_1792)">
<rect x="48" y="64" width="160" height="384" fill="#FF0000" fill-opacity="0.25"/>
<rect x="176" y="64" width="160" height="384" fill="#00FF00" fill-opacity="0.25"/>
<rect x="304" y="64" width="160" height="384" fill="#0000FF" fill-opacity="0.25"/>
</g>
<path fill-rule="evenodd" clip-rule="evenodd" d="M180.209 111.574L281.715 138.773L383.221 165.971C332.849 353.96 227.318 341.785 227.318 341.785C227.318 341.785 129.837 299.563 180.209 111.574ZM235.693 174.881C237.298 166.069 238.888 160.138 238.888 160.138L308.206 178.712C308.206 178.712 306.617 184.642 303.601 193.076C313.065 195.183 325.391 199.896 320.701 209.815C316.117 219.507 301.023 222.034 290.376 222.568C282.702 236.004 272.751 247.754 260.914 249.523L252.755 279.975C252.658 280.338 252.537 280.688 252.395 281.025L270.859 285.973C274.535 286.958 276.717 290.737 275.732 294.413C274.747 298.09 270.968 300.272 267.291 299.287L214.034 285.017C210.358 284.031 208.176 280.252 209.161 276.576C210.146 272.899 213.925 270.717 217.602 271.702L237.087 276.923C237.132 276.561 237.203 276.197 237.3 275.834L245.349 245.794C235.249 238.621 232.326 223.001 232.4 207.039C223.445 201.254 211.622 191.514 212.499 180.822C213.397 169.882 226.443 171.971 235.693 174.881ZM234.435 182.485C230.236 180.842 220.78 177.909 220.236 184.536C219.708 190.963 228.36 196.702 232.663 199.144C233.012 193.323 233.672 187.636 234.435 182.485ZM300.888 200.289C298.974 205.132 296.703 210.386 294.095 215.6C299.049 215.635 309.39 214.986 312.144 209.162C314.983 203.159 305.353 200.969 300.888 200.289ZM190 337L94.0001 337L110 353L94.0001 369H124L124 361C124 361 124 355.5 130 355.5C136 355.5 190 355 190 355L190 337ZM418 337L322 337L322 355C322 355 376 355.5 382 355.5C388 355.5 388 361 388 361L388 369H418L402 353L418 337ZM132 359C129.791 359 128 360.791 128 363L128 403C128 405.209 129.791 407 132 407H380C382.209 407 384 405.209 384 403L384 363C384 360.791 382.209 359 380 359H132Z" fill="white"/>
</g>
<defs>
<clipPath id="clip0_4_1792">
<rect width="512" height="512" fill="white"/>
</clipPath>
<clipPath id="clip1_4_1792">
<rect x="65" y="64" width="383" height="384" rx="32" fill="white"/>
</clipPath>
</defs>
</svg>
